<?xml version="1.0" encoding="UTF-8"?>
<svg id="Layer_1" data-name="Layer 1" xmlns="http://www.w3.org/2000/svg" viewBox="0 0 288 288">
  <defs>
    <style>
      .cls-1 {
        fill: #294056;
        fill-rule: evenodd;
      }

      .cls-2 {
        fill: #f8f8f8;
      }
    </style>
  </defs>
  <rect class="cls-2" x="0" width="288" height="288"/>
  <g>
    <path class="cls-1" d="M10.62,80.76c-.04.29-.04.56-.12.8-.52,1.68-1.07,3.35-1.59,5.03-.14.44-.34.75-.81.9-1.87.57-3.72,1.17-5.59,1.75-.1.03-.22-.02-.4-.04.04-.29.04-.55.12-.8.52-1.68,1.07-3.35,1.59-5.03.14-.44.33-.75.81-.9,1.87-.57,3.73-1.17,5.59-1.75.1-.03.22.02.4.04ZM3.59,87.51c.08.08.16.17.24.25,1.22-.39,2.45-.76,3.65-1.2.24-.09.46-.41.56-.68.29-.77.52-1.56.75-2.35.12-.39.2-.79.36-1.42-1.46.47-2.69.85-3.9,1.26-.2.07-.42.27-.48.46-.42,1.21-.79,2.44-1.18,3.66Z"/>
    <path class="cls-1" d="M207.26,10.7c-.46-.12-.8-.18-1.12-.28-1.5-.47-2.99-.96-4.49-1.41-.66-.19-1.07-.53-1.26-1.21-.46-1.62-1-3.22-1.5-4.83-.08-.25-.1-.51-.16-.87.33.05.55.05.76.11,1.72.54,3.44,1.09,5.16,1.62.45.14.74.37.88.84.56,1.84,1.15,3.66,1.73,5.5.03.1,0,.23,0,.54ZM200.19,3.55c.28.94.46,1.64.69,2.33.79,2.39.22,1.82,2.63,2.62.69.23,1.39.41,2.32.68-.27-.94-.46-1.64-.69-2.33-.79-2.4-.21-1.82-2.63-2.62-.69-.23-1.39-.41-2.32-.68Z"/>
    <path class="cls-1" d="M246.45,2.15c-.04.28-.04.55-.11.8-.52,1.68-1.07,3.35-1.59,5.03-.14.44-.33.76-.81.9-1.87.57-3.72,1.17-5.59,1.75-.1.03-.22-.02-.41-.04.04-.28.04-.55.11-.8.52-1.68,1.07-3.35,1.59-5.03.14-.44.33-.75.81-.9,1.87-.57,3.72-1.17,5.59-1.75.1-.03.22.02.41.04ZM239.4,9.23c1.46-.47,2.66-.82,3.83-1.25.28-.1.54-.45.65-.74.35-.95.64-1.93.93-2.91.06-.2,0-.43,0-.78-1.28.41-2.47.78-3.66,1.18-.2.07-.45.24-.52.42-.46,1.24-.88,2.49-1.25,4.08Z"/>
    <path class="cls-1" d="M167.89,80.56c-.1.54-.12.85-.21,1.13-.5,1.6-1.02,3.2-1.53,4.8-.13.41-.24.8-.75.96-1.97.61-3.94,1.24-6.04,1.91.02-.38-.02-.64.05-.87.53-1.72,1.08-3.43,1.62-5.14.12-.39.27-.71.71-.85,1.97-.61,3.94-1.25,6.13-1.95ZM160.8,87.84c1.48-.47,2.67-.84,3.85-1.24.2-.07.44-.25.51-.43.44-1.24.88-2.48,1.16-3.75-.17-.07-.25-.14-.3-.12-1.16.35-2.32.69-3.48,1.07-.2.07-.44.25-.51.43-.44,1.24-.88,2.48-1.22,4.05Z"/>
    <path class="cls-1" d="M50.18,167.82c-.37,0-.53.04-.67,0-1.8-.56-3.59-1.13-5.38-1.69-.39-.12-.69-.31-.83-.74-.58-1.91-1.19-3.82-1.77-5.72-.02-.06.03-.15.08-.31.2.02.43.01.63.07,1.69.52,3.37,1.05,5.05,1.58.4.13.82.24.97.74.61,1.98,1.25,3.95,1.92,6.08ZM42.93,160.79c.47,1.48.82,2.68,1.25,3.85.1.27.45.53.75.64.96.35,1.93.63,2.91.92.19.06.42,0,.75,0-.41-1.3-.78-2.49-1.18-3.67-.07-.2-.25-.44-.43-.51-1.24-.45-2.48-.89-4.05-1.24Z"/>
    <path class="cls-1" d="M167.93,238c-.2.68-.37,1.27-.55,1.86-.41,1.31-.83,2.61-1.23,3.91-.13.43-.29.78-.78.93-1.91.58-3.8,1.18-5.7,1.78-.07.02-.15-.02-.31-.04.02-.21,0-.44.06-.65.54-1.75,1.1-3.5,1.65-5.25.12-.4.31-.68.75-.81,1.9-.58,3.8-1.19,5.7-1.78.07-.02.15.02.42.06ZM166.36,239.65c-.08-.08-.16-.15-.24-.23-1.19.38-2.39.73-3.55,1.16-.28.1-.55.44-.66.74-.35.95-.64,1.93-.93,2.91-.06.2,0,.43,0,.79,1.28-.41,2.48-.77,3.65-1.18.23-.08.5-.3.57-.52.42-1.21.78-2.43,1.17-3.66Z"/>
    <path class="cls-1" d="M237.85,167.79c.22-.75.42-1.42.63-2.08.38-1.23.78-2.46,1.16-3.69.13-.43.29-.77.79-.92,1.91-.58,3.8-1.18,5.7-1.77.06-.02.15.02.31.05-.03.25-.02.52-.09.76-.53,1.72-1.08,3.43-1.62,5.14-.12.4-.32.68-.75.81-1.9.58-3.8,1.19-5.7,1.78-.06.02-.15-.02-.42-.07ZM239.42,166.14c.08.08.17.16.26.23,1.19-.38,2.38-.73,3.55-1.16.28-.1.54-.45.65-.74.35-.95.64-1.93.93-2.91.06-.2,0-.43,0-.78-1.28.41-2.47.77-3.65,1.18-.23.08-.5.3-.58.52-.42,1.21-.79,2.43-1.18,3.65Z"/>
    <path class="cls-1" d="M50.04,10.7c-.46-.11-.79-.18-1.12-.28-1.5-.47-2.98-.96-4.49-1.41-.66-.19-1.07-.52-1.27-1.21-.45-1.58-.98-3.14-1.46-4.72-.09-.28-.13-.58-.21-.99.34.05.57.05.77.11,1.72.53,3.44,1.09,5.16,1.62.45.14.74.37.88.84.56,1.84,1.15,3.66,1.73,5.5.03.1,0,.23,0,.54ZM48.31,9.14c.08-.07.16-.15.24-.22-.34-1.11-.7-2.21-1.02-3.33-.16-.55-.5-.84-1.04-.99-.87-.25-1.72-.54-2.58-.79-.24-.07-.5-.08-.97-.15.46,1.42.85,2.68,1.28,3.92.06.18.32.35.52.42,1.18.4,2.37.76,3.56,1.14Z"/>
    <path class="cls-1" d="M80.63,10.58c.2-.68.36-1.27.55-1.86.41-1.3.83-2.61,1.23-3.91.13-.43.29-.78.78-.93,1.91-.58,3.8-1.18,5.7-1.78.07-.02.15.02.31.05-.02.21,0,.44-.06.65-.54,1.75-1.1,3.5-1.65,5.25-.12.4-.32.68-.75.81-1.91.58-3.8,1.19-5.7,1.78-.07.02-.15-.02-.41-.06ZM82.18,9.22c.93-.29,1.63-.5,2.32-.73,2.38-.77,1.81-.23,2.61-2.64.23-.69.41-1.39.67-2.29-.75.21-1.27.34-1.77.51-.82.27-1.84.35-2.37.91-.57.59-.69,1.62-.98,2.47-.17.5-.27,1.02-.47,1.78Z"/>
    <path class="cls-1" d="M198.85,159.25c.8.25,1.55.47,2.29.7,1.16.36,2.32.73,3.48,1.09.38.12.72.26.86.71.61,1.98,1.25,3.95,1.91,6.02-.3.02-.5.09-.65.05-1.8-.55-3.59-1.13-5.38-1.69-.39-.12-.69-.31-.83-.74-.58-1.91-1.19-3.82-1.77-5.73-.02-.06.03-.14.1-.41ZM205.62,166.39c.02-.29.07-.48.03-.65-.1-.42-.23-.83-.37-1.24-.27-.77-.35-1.75-.88-2.26-.56-.54-1.55-.67-2.36-.94-.54-.18-1.09-.3-1.82-.5.32,1.5.77,2.74,1.22,3.98.07.18.31.36.51.42,1.18.4,2.37.77,3.66,1.18Z"/>
    <path class="cls-1" d="M80.59,167.87c.33-1.07.6-1.96.88-2.85.33-1.04.66-2.08.98-3.13.12-.4.34-.67.76-.8,1.87-.57,3.72-1.18,5.59-1.76.1-.03.22,0,.42.02-.05.32-.05.63-.14.91-.51,1.64-1.05,3.27-1.56,4.92-.15.49-.39.8-.91.95-1.79.54-3.58,1.13-5.37,1.69-.14.04-.29.02-.67.05ZM82.2,166.12c.08.08.16.17.24.25,1.22-.39,2.45-.76,3.65-1.19.24-.09.46-.42.56-.68.29-.77.52-1.56.75-2.35.12-.39.2-.79.36-1.42-1.46.47-2.69.85-3.9,1.26-.19.07-.42.27-.48.46-.41,1.21-.79,2.44-1.18,3.66Z"/>
    <path class="cls-1" d="M2.08,246.61c.05-.42.04-.62.09-.79.56-1.79,1.11-3.58,1.7-5.36.09-.26.33-.59.57-.67,1.99-.67,4-1.3,6.14-1.98-.02.39.01.65-.06.89-.53,1.72-1.06,3.43-1.64,5.14-.1.3-.34.69-.6.78-1.99.68-4,1.3-6.2,2ZM3.57,245.07c1.46-.47,2.66-.81,3.83-1.25.28-.1.54-.45.65-.74.35-.95.64-1.93.93-2.91.06-.2,0-.43,0-.78-1.28.41-2.47.78-3.65,1.18-.2.07-.45.24-.52.42-.46,1.24-.88,2.49-1.24,4.08Z"/>
    <path class="cls-1" d="M198.72,128.66c.05-.3.06-.53.12-.74.52-1.68,1.05-3.35,1.58-5.03.14-.46.32-.85.85-1.01,1.8-.54,3.58-1.12,5.37-1.67.17-.05.37-.04.65-.06-.05.3-.06.53-.12.74-.52,1.68-1.05,3.35-1.58,5.03-.14.46-.32.85-.86,1.01-1.79.54-3.58,1.12-5.37,1.67-.17.05-.37.04-.64.06ZM200.23,126.94c.08.08.16.16.25.25,1.22-.39,2.46-.75,3.66-1.2.26-.1.48-.49.59-.8.32-.88.58-1.79.85-2.69.07-.24.07-.5.12-.93-1.38.44-2.61.81-3.82,1.23-.19.07-.4.29-.47.48-.42,1.21-.79,2.43-1.19,3.65Z"/>
    <path class="cls-1" d="M277.4,237.91c.34.07.6.1.85.18,1.65.51,3.29,1.04,4.94,1.54.48.15.81.39.97.91.54,1.8,1.13,3.59,1.69,5.38.04.14,0,.3,0,.54-.26-.03-.49-.03-.69-.09-1.69-.52-3.37-1.05-5.05-1.58-.46-.14-.84-.32-1.01-.87-.56-1.88-1.16-3.74-1.74-5.61-.02-.07.01-.15.04-.39ZM278.76,239.4c.47,1.48.82,2.68,1.25,3.85.1.27.45.54.74.64.95.35,1.93.63,2.91.92.19.06.42,0,.75,0-.41-1.3-.78-2.49-1.18-3.67-.07-.2-.24-.44-.43-.51-1.23-.45-2.48-.88-4.05-1.24Z"/>
    <path class="cls-1" d="M285.93,120.12c-.08.4-.12.66-.2.91-.5,1.6-1.02,3.2-1.5,4.81-.18.62-.5.98-1.14,1.17-1.61.47-3.2,1.01-4.8,1.52-.26.08-.53.11-.87.17,0-.26-.05-.49,0-.68.53-1.72,1.08-3.43,1.61-5.14.15-.47.35-.83.88-.99,1.8-.54,3.58-1.12,5.37-1.67.15-.04.3-.04.65-.09ZM278.84,126.93c.08.08.16.17.24.25,1.22-.39,2.46-.74,3.66-1.19.27-.1.49-.49.6-.79.3-.81.54-1.64.79-2.46.09-.31.14-.64.24-1.17-1.42.45-2.65.82-3.87,1.23-.19.06-.41.28-.47.47-.42,1.21-.8,2.44-1.19,3.66Z"/>
    <path class="cls-1" d="M41.52,128.63c.01-.21,0-.37.04-.51.56-1.79,1.14-3.57,1.69-5.36.14-.45.37-.74.83-.88,1.75-.54,3.5-1.1,5.25-1.65.21-.06.44-.05.72-.08-.01.24,0,.4-.04.53-.56,1.79-1.13,3.57-1.69,5.36-.12.39-.29.71-.72.84-1.87.57-3.73,1.16-5.59,1.74-.13.04-.29,0-.49,0ZM48.56,121.84c-.08-.07-.17-.13-.25-.2-1.19.37-2.39.74-3.57,1.13-.2.07-.44.25-.51.44-.43,1.24-.82,2.5-1.23,3.8.27.04.39.1.48.07,1.12-.34,2.25-.67,3.37-1.04.2-.07.44-.25.51-.44.43-1.24.82-2.5,1.22-3.75Z"/>
    <path class="cls-1" d="M128.68,120.13c-.05.32-.06.55-.12.75-.52,1.68-1.07,3.35-1.57,5.03-.17.58-.49.91-1.08,1.08-1.61.47-3.2,1.01-4.81,1.51-.28.09-.59.11-.99.18.05-.32.06-.55.12-.75.52-1.68,1.07-3.35,1.57-5.03.17-.58.49-.91,1.08-1.08,1.61-.47,3.2-1.01,4.8-1.51.28-.09.59-.11.99-.18ZM121.62,126.94c.08.08.16.16.24.25,1.22-.39,2.46-.74,3.66-1.19.27-.1.48-.49.6-.8.3-.81.54-1.64.79-2.46.09-.31.13-.64.24-1.18-1.43.46-2.66.83-3.87,1.25-.19.07-.4.28-.47.48-.42,1.21-.8,2.44-1.19,3.66Z"/>
    <path class="cls-1" d="M237.9,246.62c.07-.48.07-.71.14-.93.54-1.71,1.07-3.43,1.64-5.13.1-.3.34-.68.61-.77,1.99-.68,4-1.3,6.13-1.98-.03.4,0,.66-.07.9-.53,1.72-1.06,3.43-1.64,5.13-.1.3-.34.68-.61.77-1.99.68-4,1.3-6.21,2ZM244.97,239.65c-.08-.08-.16-.15-.25-.22-1.19.38-2.38.73-3.55,1.16-.28.1-.55.44-.66.73-.35.95-.64,1.93-.93,2.91-.06.2,0,.43,0,.79,1.28-.41,2.48-.77,3.65-1.18.23-.08.5-.3.57-.52.42-1.21.78-2.44,1.17-3.66Z"/>
    <path class="cls-1" d="M41.59,207.24c-.04-.13-.1-.21-.08-.27.6-1.94,1.2-3.88,1.83-5.81.07-.23.3-.5.52-.57,1.97-.63,3.95-1.23,5.93-1.83.06-.02.14.05.26.1,0,.13.01.29-.03.42-.56,1.79-1.13,3.57-1.69,5.36-.12.39-.28.71-.72.84-1.87.57-3.73,1.16-5.59,1.74-.13.04-.29,0-.42,0ZM48.57,200.47c-.08-.08-.16-.16-.25-.23-1.22.39-2.46.75-3.66,1.19-.27.1-.49.49-.6.8-.33.92-.61,1.86-.88,2.8-.06.2-.04.42-.06.81,1.37-.43,2.59-.81,3.81-1.23.19-.07.39-.29.46-.48.42-1.21.79-2.43,1.18-3.65Z"/>
    <path class="cls-1" d="M237.94,89.38c.02-.38,0-.53.04-.67.56-1.83,1.12-3.66,1.72-5.47.09-.26.33-.59.57-.67,1.99-.67,4-1.3,6.14-1.98-.02.39.01.65-.06.89-.53,1.72-1.06,3.43-1.64,5.14-.1.3-.34.69-.6.78-1.99.68-4,1.3-6.18,1.99ZM239.44,87.5c.07.09.14.17.21.26.7-.22,1.39-.43,2.08-.65,2.38-.77,1.81-.23,2.61-2.64.23-.68.4-1.39.68-2.35-1.52.49-2.78.87-4.02,1.3-.19.06-.37.31-.44.51-.4,1.18-.76,2.38-1.13,3.57Z"/>
    <path class="cls-1" d="M41.5,285.85c.04-.27.06-.5.12-.71.52-1.68,1.05-3.35,1.58-5.03.14-.46.32-.85.86-1.01,1.83-.55,3.66-1.13,5.48-1.7.11-.03.23-.02.45-.04,0,.23.05.45,0,.63-.54,1.75-1.1,3.5-1.66,5.25-.12.39-.27.72-.71.85-1.87.57-3.73,1.17-5.59,1.74-.13.04-.29,0-.52,0ZM48.57,279.09c-.08-.08-.15-.16-.23-.24-1.04.32-2.06.68-3.11.95-.68.18-1.07.54-1.25,1.22-.21.83-.51,1.65-.75,2.47-.07.24-.08.5-.15.94,1.38-.43,2.61-.8,3.82-1.22.22-.08.44-.35.52-.58.41-1.18.77-2.37,1.15-3.56Z"/>
    <path class="cls-1" d="M50.17,41.52c-.37,1.2-.69,2.24-1.02,3.28-.28.89-.54,1.8-.87,2.67-.11.29-.36.66-.63.75-1.93.64-3.87,1.22-5.81,1.82-.06.02-.15-.02-.31-.06.01-.17-.01-.36.04-.52.55-1.75,1.11-3.5,1.66-5.25.13-.43.31-.78.79-.92,1.83-.56,3.65-1.14,5.48-1.71.14-.04.3-.03.67-.06ZM48.61,42.97c-1.01.29-1.79.5-2.55.75-2.1.7-1.65.23-2.33,2.33-.25.76-.46,1.54-.74,2.44,1.01-.05,1.76-.39,2.53-.64,2.1-.68,1.65-.24,2.33-2.33.25-.76.46-1.54.76-2.55Z"/>
    <path class="cls-1" d="M128.71,277.34c-.08.39-.12.66-.19.9-.5,1.6-1.02,3.2-1.5,4.81-.18.61-.49.99-1.14,1.17-1.61.47-3.2,1.01-4.8,1.52-.26.08-.53.11-.91.18,0-.23-.04-.42,0-.58.56-1.79,1.13-3.57,1.69-5.37.14-.45.37-.74.84-.88,1.79-.55,3.58-1.12,5.37-1.68.15-.04.3-.04.65-.09ZM127.18,279.09c-.08-.08-.15-.16-.23-.24-1.22.38-2.46.74-3.66,1.18-.27.1-.49.49-.61.79-.31.84-.56,1.71-.82,2.57-.08.28-.11.57-.19,1.07,1.41-.45,2.63-.82,3.85-1.23.19-.07.4-.28.47-.47.42-1.21.8-2.44,1.19-3.67Z"/>
    <path class="cls-1" d="M159.3,167.82c.06-.35.08-.62.16-.87.51-1.64,1.05-3.27,1.56-4.91.13-.42.28-.78.77-.93,1.91-.58,3.8-1.19,5.7-1.78.07-.02.15.01.33.03-.04.29-.03.6-.12.87-.51,1.64-1.04,3.28-1.56,4.91-.13.42-.28.78-.77.93-1.91.58-3.8,1.19-5.7,1.78-.07.02-.15-.01-.37-.04ZM160.79,166.45c1.48-.47,2.68-.83,3.85-1.25.25-.09.51-.39.6-.64.37-1.07.69-2.16,1.01-3.25.04-.12-.04-.27-.07-.52-1.27.41-2.46.77-3.65,1.18-.2.07-.44.25-.51.43-.45,1.24-.88,2.48-1.23,4.05Z"/>
    <path class="cls-1" d="M120.01,50.05c.47-1.5.87-2.84,1.3-4.18.25-.78.35-1.73.87-2.26.52-.52,1.47-.63,2.25-.89,1-.33,2.01-.64,3.02-.95.36-.11.73-.19,1.22-.32-.02.32,0,.5-.05.67-.55,1.75-1.11,3.5-1.66,5.25-.13.43-.32.77-.8.92-1.83.56-3.65,1.14-5.48,1.71-.14.04-.3.02-.66.05ZM127.18,43.23c-.09-.07-.17-.13-.26-.2-1.19.37-2.38.75-3.58,1.12-.44.13-.57.5-.69.88-.3.93-.59,1.87-.87,2.81-.06.19,0,.42,0,.75,1.3-.41,2.49-.77,3.68-1.16.2-.07.44-.25.51-.44.43-1.24.82-2.5,1.22-3.75Z"/>
    <path class="cls-1" d="M10.67,1.95c-.08.52-.1.79-.17,1.04-.51,1.64-1.04,3.28-1.56,4.91-.12.37-.2.76-.65.9-2,.63-4.01,1.27-6.14,1.95.03-.4,0-.66.07-.9.53-1.72,1.06-3.43,1.64-5.13.1-.3.34-.68.61-.77,1.99-.68,4-1.3,6.21-2.01ZM3.58,9.23c1.48-.47,2.67-.84,3.85-1.24.2-.07.44-.25.51-.44.44-1.24.88-2.48,1.15-3.75-.17-.07-.25-.14-.31-.12-1.16.35-2.32.69-3.48,1.07-.2.06-.44.25-.51.43-.44,1.24-.88,2.48-1.22,4.05Z"/>
    <path class="cls-1" d="M198.63,285.86c.2-.63.35-1.15.51-1.66.43-1.38.87-2.76,1.3-4.14.13-.42.29-.79.78-.94,1.87-.57,3.73-1.16,5.6-1.73.1-.03.23,0,.44,0-.02.23,0,.45-.06.65-.53,1.72-1.08,3.43-1.62,5.14-.13.42-.29.79-.78.94-1.87.57-3.73,1.16-5.6,1.73-.1.03-.23,0-.57,0ZM205.78,279.1c-.07-.08-.14-.16-.21-.24-.92.28-1.84.6-2.77.83-.92.22-1.52.67-1.7,1.66-.13.73-.44,1.42-.65,2.13-.07.24-.09.5-.15.89,1.43-.32,2.68-.75,3.92-1.2.18-.07.36-.32.42-.52.4-1.18.77-2.37,1.15-3.56Z"/>
    <path class="cls-1" d="M159.29,10.67c.07-.41.09-.68.17-.93.51-1.64,1.06-3.27,1.55-4.92.16-.55.46-.85,1-1.02,1.76-.54,3.5-1.1,5.25-1.65.14-.04.3-.04.57-.07-.04.35-.04.65-.12.93-.51,1.64-1.06,3.27-1.55,4.92-.16.55-.46.85-1,1.02-1.76.54-3.5,1.1-5.25,1.65-.14.04-.3.04-.61.08ZM160.83,8.95c.09.06.17.12.26.19,1.15-.37,2.31-.71,3.45-1.11.24-.08.53-.27.61-.48.44-1.24.9-2.47,1.19-3.98-.95.28-1.72.49-2.49.74-2.1.69-1.65.24-2.34,2.33-.25.76-.46,1.54-.69,2.32Z"/>
    <path class="cls-1" d="M120.17,237.93c.26.03.46.03.63.09,1.72.53,3.44,1.08,5.16,1.62.42.13.78.29.93.79.57,1.88,1.17,3.74,1.76,5.61.03.1-.02.22-.04.42-.24-.03-.46-.02-.67-.09-1.69-.52-3.37-1.05-5.05-1.58-.46-.14-.85-.32-1.01-.86-.56-1.88-1.16-3.74-1.74-5.61-.02-.07,0-.15.03-.39ZM121.86,239.43c-.08.08-.15.16-.23.25.38,1.19.76,2.37,1.12,3.56.14.45.49.58.86.7.93.3,1.87.59,2.8.87.2.06.42.03.8.05-.43-1.35-.81-2.58-1.23-3.79-.06-.19-.28-.4-.48-.46-1.21-.41-2.43-.79-3.65-1.18Z"/>
    <path class="cls-1" d="M80.69,246.47c.08-.4.11-.74.21-1.06.47-1.53,1-3.04,1.44-4.58.19-.67.53-1.06,1.21-1.25,1.61-.47,3.21-1,4.81-1.49.25-.08.51-.11.88-.19-.06.4-.07.7-.16.98-.51,1.64-1.05,3.27-1.55,4.92-.15.49-.4.8-.91.95-1.79.54-3.58,1.13-5.37,1.69-.14.04-.29.02-.56.04ZM82.17,245.07c1.47-.47,2.67-.82,3.84-1.25.27-.1.54-.45.65-.74.35-.95.64-1.93.93-2.91.06-.2,0-.43,0-.77-1.29.41-2.48.78-3.66,1.18-.2.07-.45.24-.52.42-.46,1.24-.88,2.49-1.25,4.07Z"/>
    <path class="cls-1" d="M285.89,198.76c-.01.24,0,.4-.04.54-.56,1.79-1.13,3.57-1.69,5.36-.12.39-.29.71-.72.84-1.87.57-3.73,1.16-5.59,1.74-.13.04-.29,0-.49,0,.01-.21,0-.37.04-.51.56-1.79,1.14-3.57,1.69-5.37.14-.45.37-.74.83-.88,1.75-.54,3.5-1.11,5.25-1.65.21-.06.44-.05.72-.09ZM278.86,205.56c.21.08.29.14.35.12,1.16-.34,2.33-.67,3.48-1.05.2-.06.43-.25.5-.44.46-1.23.85-2.49,1.26-3.97-1.55.35-2.83.79-4.1,1.26-.13.05-.25.2-.3.34-.45,1.24-.84,2.49-1.19,3.74Z"/>
    <path class="cls-1" d="M277.33,285.88c.05-.3.06-.53.12-.74.52-1.68,1.05-3.35,1.58-5.03.14-.46.32-.85.86-1.01,1.79-.54,3.58-1.12,5.37-1.67.17-.05.37-.04.64-.07-.05.3-.06.53-.12.74-.52,1.68-1.05,3.35-1.58,5.03-.14.46-.32.85-.85,1.01-1.79.54-3.58,1.12-5.37,1.67-.17.05-.37.04-.65.06ZM284.4,279.08c-.08-.07-.16-.14-.25-.21-1.19.37-2.38.75-3.57,1.11-.44.13-.58.49-.7.87-.3.93-.59,1.87-.87,2.81-.06.2-.03.42-.05.79,1.36-.43,2.59-.81,3.8-1.23.19-.07.39-.29.46-.49.41-1.21.79-2.43,1.18-3.65Z"/>
    <path class="cls-1" d="M207.39,41.52c-.32,1.05-.59,1.94-.87,2.83-.33,1.04-.64,2.09-1.01,3.12-.11.29-.36.66-.63.75-1.92.64-3.87,1.22-5.81,1.82-.07.02-.15-.02-.32-.05,0-.17-.02-.36.03-.52.55-1.75,1.11-3.5,1.66-5.25.13-.43.3-.78.79-.93,1.83-.56,3.65-1.14,5.48-1.71.14-.04.3-.03.68-.07ZM205.79,43.27c-.07-.08-.14-.16-.22-.24-.92.28-1.84.6-2.77.83-.92.22-1.52.67-1.7,1.67-.13.73-.44,1.42-.65,2.13-.07.24-.08.5-.15.9,1.43-.34,2.68-.76,3.92-1.21.18-.07.36-.32.42-.52.4-1.18.77-2.37,1.15-3.56Z"/>
    <path class="cls-1" d="M80.69,89.39c.06-.46.06-.69.12-.9.53-1.72,1.08-3.43,1.62-5.14.12-.39.27-.71.71-.84,1.97-.61,3.94-1.24,6.04-1.91-.02.38.02.65-.05.88-.53,1.72-1.08,3.43-1.62,5.14-.12.39-.27.71-.71.84-1.97.61-3.94,1.25-6.11,1.94ZM82.19,87.52c.08.08.17.16.25.24,1.19-.38,2.37-.76,3.56-1.13.44-.14.58-.48.7-.87.29-.94.6-1.86.88-2.8.06-.2.03-.43.05-.8-1.36.43-2.58.81-3.8,1.23-.19.07-.41.28-.47.47-.41,1.21-.79,2.44-1.17,3.66Z"/>
    <path class="cls-1" d="M277.26,50.03c.21-.7.37-1.3.56-1.88.41-1.3.83-2.61,1.24-3.91.13-.42.29-.79.78-.94,1.87-.57,3.73-1.16,5.6-1.73.11-.03.23,0,.44,0-.02.23,0,.45-.06.65-.53,1.72-1.08,3.43-1.62,5.14-.13.42-.29.79-.78.94-1.87.57-3.73,1.16-5.6,1.73-.1.03-.23,0-.55,0ZM284.4,43.25c-.08-.08-.16-.16-.24-.24-1.22.39-2.46.75-3.66,1.19-.27.1-.49.49-.6.79-.33.92-.61,1.86-.88,2.8-.06.2-.04.42-.08.82,1.37-.44,2.6-.81,3.81-1.23.19-.07.4-.29.46-.48.42-1.21.79-2.44,1.19-3.66Z"/>
    <path class="cls-1" d="M120.23,80.63c.73.22,1.4.42,2.07.63,1.23.39,2.47.78,3.7,1.17.38.12.73.25.87.7.61,1.98,1.25,3.95,1.91,6.02-.3.03-.49.1-.65.05-1.8-.55-3.59-1.13-5.38-1.69-.39-.12-.7-.3-.83-.74-.58-1.91-1.19-3.82-1.78-5.72-.02-.06.03-.15.1-.42ZM121.64,82.14c.12.56.15.87.25,1.15.34,1.04.71,2.07,1.07,3.1,1.03.37,2.05.74,3.08,1.09.31.11.65.14,1.13.23-.32-1.45-.77-2.69-1.21-3.93-.07-.18-.31-.35-.51-.42-1.18-.4-2.37-.77-3.8-1.22Z"/>
    <path class="cls-1" d="M207.37,198.78c-.21.71-.38,1.3-.56,1.89-.41,1.3-.83,2.61-1.24,3.91-.13.42-.29.79-.78.94-1.87.57-3.73,1.16-5.6,1.73-.1.03-.23,0-.44,0,.02-.23,0-.46.06-.65.53-1.72,1.08-3.43,1.62-5.14.13-.42.29-.79.78-.94,1.87-.57,3.73-1.16,5.6-1.73.1-.03.23,0,.55,0ZM200.14,205.81c1.59-.36,2.85-.77,4.07-1.25.23-.09.41-.46.51-.73.31-.89.58-1.79.85-2.69.07-.24.08-.5.15-.96-1.38.44-2.61.81-3.82,1.23-.22.08-.45.34-.52.57-.41,1.18-.77,2.37-1.24,3.83Z"/>
    <path class="cls-1" d="M128.78,198.74c-.32,1.05-.59,1.94-.87,2.83-.33,1.04-.64,2.09-1.01,3.12-.11.29-.36.67-.63.75-1.93.64-3.87,1.22-5.81,1.82-.06.02-.15-.02-.32-.05.02-.21.01-.43.08-.63.53-1.71,1.08-3.43,1.62-5.14.13-.43.3-.78.79-.93,1.83-.56,3.65-1.14,5.48-1.71.14-.04.3-.03.68-.06ZM127.18,200.47c-.08-.08-.16-.16-.24-.24-1.22.39-2.46.75-3.66,1.19-.27.1-.49.49-.6.8-.33.92-.6,1.86-.88,2.8-.06.2-.04.42-.07.81,1.37-.43,2.6-.81,3.81-1.23.19-.06.4-.29.46-.48.42-1.21.79-2.44,1.18-3.66Z"/>
    <path class="cls-1" d="M10.62,159.19c-.02.37,0,.53-.04.67-.56,1.83-1.14,3.65-1.71,5.48-.11.35-.3.61-.68.73-1.97.61-3.94,1.25-6.04,1.91.02-.39-.02-.65.05-.88.53-1.72,1.06-3.43,1.64-5.14.1-.3.34-.69.6-.78,1.99-.68,4-1.3,6.18-2ZM9.15,161.05c-.08-.08-.16-.16-.24-.24-1.22.39-2.45.75-3.66,1.2-.26.1-.48.49-.59.79-.34.92-.62,1.86-.9,2.79-.06.2-.03.44-.05.82,1.35-.43,2.57-.81,3.79-1.23.19-.07.41-.28.48-.47.41-1.21.79-2.44,1.18-3.66Z"/>
    <path class="cls-1" d="M277.46,80.64c.88.27,1.7.51,2.51.76,1.08.34,2.17.68,3.25,1.03.38.12.72.26.86.7.61,1.98,1.25,3.95,1.91,6.02-.3.02-.5.09-.65.04-1.8-.55-3.59-1.13-5.38-1.69-.39-.12-.69-.31-.83-.74-.58-1.91-1.19-3.82-1.77-5.73-.02-.06.03-.14.1-.41ZM279.08,82.21c-.08.08-.16.16-.24.24.39,1.22.75,2.45,1.2,3.65.1.26.49.49.79.6.92.33,1.86.6,2.8.88.2.06.42.04.81.07-.43-1.36-.81-2.58-1.23-3.79-.07-.19-.28-.4-.47-.47-1.21-.41-2.43-.79-3.65-1.18Z"/>
    <path class="cls-1" d="M285.88,167.87c-.32-.05-.54-.05-.75-.12-1.69-.52-3.37-1.05-5.05-1.58-.41-.13-.79-.27-.95-.77-.58-1.91-1.18-3.82-1.77-5.72-.02-.06.03-.15.06-.32.24.03.5.03.74.1,1.65.5,3.29,1.03,4.94,1.54.51.16.89.39,1.06.96.52,1.77,1.1,3.52,1.65,5.27.05.17.04.36.06.64ZM279.08,160.81c-.08.09-.15.17-.23.26.38,1.19.77,2.37,1.13,3.56.14.45.5.58.87.7.93.3,1.87.6,2.8.87.2.06.43,0,.77,0-.41-1.28-.77-2.47-1.17-3.65-.07-.2-.24-.46-.42-.52-1.24-.43-2.5-.82-3.75-1.23Z"/>
    <path class="cls-1" d="M120.23,2.04c.66.19,1.26.35,1.85.54,1.31.41,2.62.83,3.92,1.24.38.12.73.25.87.7.61,1.98,1.25,3.95,1.92,6.08-.4-.03-.66,0-.88-.07-1.69-.51-3.37-1.05-5.05-1.58-.41-.13-.79-.28-.94-.78-.58-1.91-1.18-3.82-1.77-5.73-.02-.06.03-.15.09-.4ZM126.92,9.14c.08-.07.16-.15.24-.22-.34-1.11-.7-2.21-1.02-3.33-.16-.55-.51-.84-1.04-.99-.87-.25-1.72-.54-2.58-.79-.24-.07-.5-.08-.96-.14.46,1.42.85,2.67,1.28,3.92.06.18.32.35.52.42,1.18.4,2.37.76,3.56,1.14Z"/>
    <path class="cls-1" d="M128.56,167.95c-.73-.22-1.4-.42-2.06-.63-1.23-.39-2.47-.78-3.7-1.17-.38-.12-.73-.25-.87-.7-.61-1.98-1.25-3.95-1.92-6.08.4.03.66,0,.89.08,1.69.51,3.37,1.05,5.05,1.58.42.13.79.28.94.78.58,1.91,1.18,3.82,1.77,5.72.02.06-.03.15-.1.43ZM121.57,160.76c.33,1.1.63,1.93.81,2.79.24,1.17.87,1.83,2.05,2.06.86.17,1.7.48,2.52.73.08-.2.14-.28.13-.33-.2-.71-.39-1.43-.62-2.14-.69-2.09-.22-1.64-2.33-2.33-.76-.25-1.54-.46-2.57-.77Z"/>
    <path class="cls-1" d="M277.32,1.97c1.13.35,2.06.64,2.99.93.97.3,1.95.59,2.91.93.3.11.7.33.79.59.69,1.99,1.31,4.01,1.98,6.13-.35,0-.58.05-.78,0-1.72-.53-3.44-1.09-5.16-1.61-.54-.16-.85-.47-1.02-1.01-.52-1.73-1.08-3.44-1.61-5.16-.05-.18-.05-.37-.11-.8ZM279.08,3.6c-.08.08-.16.16-.24.24.39,1.22.75,2.45,1.2,3.65.1.26.49.49.79.6.92.33,1.86.61,2.8.88.2.06.42.04.81.07-.44-1.36-.81-2.58-1.23-3.79-.07-.19-.28-.4-.47-.47-1.21-.42-2.43-.79-3.65-1.18Z"/>
    <path class="cls-1" d="M49.98,89.34c-.89-.27-1.68-.51-2.46-.75-1.12-.35-2.24-.72-3.36-1.06-.44-.13-.75-.35-.89-.83-.57-1.88-1.16-3.74-1.74-5.61-.02-.07.01-.15.03-.29.21,0,.44-.05.64,0,1.72.53,3.44,1.08,5.16,1.62.42.13.78.3.93.79.57,1.88,1.17,3.74,1.75,5.61.03.1-.02.22-.05.52ZM48.32,87.76c.08-.08.16-.16.24-.24-.39-1.22-.75-2.45-1.19-3.65-.1-.27-.48-.49-.78-.61-.84-.31-1.71-.56-2.57-.82-.28-.08-.57-.1-1.06-.18.45,1.4.82,2.62,1.24,3.83.07.19.27.41.46.47,1.21.42,2.44.8,3.66,1.19Z"/>
    <path class="cls-1" d="M207.27,89.25c-.31-.05-.54-.05-.75-.11-1.68-.52-3.37-1.05-5.05-1.58-.47-.15-.83-.34-.99-.88-.55-1.84-1.15-3.67-1.72-5.5-.03-.1,0-.23,0-.43.25.02.48,0,.68.05,1.72.53,3.44,1.09,5.16,1.61.49.15.8.41.96.92.53,1.76,1.11,3.51,1.65,5.27.05.17.04.36.07.64ZM200.15,82.18c.47,1.48.82,2.68,1.25,3.85.1.27.45.54.74.64.95.35,1.93.64,2.91.92.19.06.42,0,.76,0-.41-1.29-.78-2.49-1.18-3.67-.07-.2-.24-.44-.43-.51-1.23-.45-2.48-.88-4.05-1.24Z"/>
    <path class="cls-1" d="M50.05,246.48c-.35-.06-.62-.08-.86-.16-1.65-.51-3.29-1.03-4.94-1.54-.47-.15-.83-.35-.99-.88-.55-1.84-1.15-3.67-1.72-5.5-.03-.1,0-.23.02-.44.27.03.54.03.77.1,1.69.52,3.36,1.06,5.05,1.57.49.15.8.41.95.92.53,1.76,1.11,3.51,1.65,5.27.05.17.04.36.07.65ZM48.31,244.98c.08-.08.16-.15.25-.23-.39-1.22-.75-2.45-1.19-3.65-.1-.27-.48-.5-.78-.61-.92-.33-1.86-.6-2.8-.88-.2-.06-.43-.05-.83-.09.44,1.37.81,2.59,1.22,3.8.07.19.27.41.46.48,1.21.42,2.44.8,3.66,1.19Z"/>
    <path class="cls-1" d="M198.62,237.97c.37,0,.53-.04.67,0,1.8.56,3.59,1.13,5.38,1.69.39.12.69.31.83.74.58,1.91,1.18,3.82,1.77,5.73.02.06-.03.14-.08.31-.2-.02-.43-.01-.63-.07-1.69-.52-3.37-1.05-5.05-1.58-.4-.13-.82-.24-.97-.74-.61-1.98-1.25-3.95-1.92-6.08ZM205.52,244.97c.08-.07.16-.13.24-.2-.22-.74-.42-1.47-.66-2.2-.73-2.21-.21-1.73-2.49-2.46-.73-.23-1.44-.55-2.38-.61.34,1.42.75,2.67,1.21,3.9.07.18.31.36.51.43,1.18.4,2.37.77,3.56,1.15Z"/>
    <path class="cls-1" d="M167.89,128.81c-2.16-.68-4.13-1.29-6.09-1.94-.26-.09-.57-.35-.65-.59-.67-2-1.29-4.01-1.97-6.16.43.06.73.07,1,.15,1.64.51,3.27,1.05,4.91,1.55.47.15.85.33,1.01.86.56,1.83,1.14,3.65,1.71,5.48.04.14.04.29.08.65ZM166.13,127.18c.07-.08.15-.16.22-.24-.37-1.19-.74-2.38-1.11-3.57-.13-.43-.47-.59-.87-.71-.94-.29-1.86-.6-2.8-.88-.2-.06-.43-.03-.81-.06.43,1.36.81,2.59,1.23,3.8.07.19.29.4.48.47,1.21.41,2.44.79,3.66,1.18Z"/>
    <path class="cls-1" d="M89.21,128.7c-.26-.04-.48-.06-.7-.13-1.71-.54-3.42-1.09-5.14-1.62-.44-.13-.76-.34-.91-.81-.57-1.87-1.16-3.73-1.74-5.59-.03-.1-.01-.22-.02-.44.29.05.55.05.79.13,1.68.52,3.35,1.07,5.03,1.59.43.13.8.29.95.77.59,1.9,1.18,3.8,1.77,5.7.03.1-.01.22-.03.4ZM87.82,127.21c-.36-1.16-.7-2.07-.9-3.01-.22-1.01-.77-1.55-1.77-1.74-.94-.19-1.81-.66-2.95-.78.22.77.38,1.4.59,2.02.9,2.7.21,2.01,2.93,2.91.61.2,1.24.36,2.11.61Z"/>
    <path class="cls-1" d="M2.08,41.39c1.51.48,2.89.89,4.26,1.34,2.88.96,2.12.2,3.07,3.04.36,1.07.7,2.15,1.03,3.24.1.32.15.66.25,1.09-.34-.06-.57-.08-.78-.14-1.71-.54-3.42-1.09-5.14-1.62-.44-.14-.77-.34-.91-.81-.57-1.87-1.16-3.73-1.74-5.59-.03-.1-.01-.22-.03-.55ZM8.92,48.57c.07-.08.14-.16.22-.25-.37-1.19-.71-2.39-1.14-3.56-.1-.28-.45-.54-.75-.65-.91-.35-1.86-.62-2.79-.91-.24-.07-.5-.05-.9-.08.42,1.33.77,2.52,1.17,3.7.08.23.31.49.53.57,1.21.42,2.44.79,3.66,1.18Z"/>
    <path class="cls-1" d="M89.42,50.21c-.95-.28-1.61-.47-2.27-.68-1.27-.4-2.53-.81-3.8-1.19-.45-.14-.75-.36-.89-.83-.56-1.83-1.14-3.65-1.71-5.48-.04-.14-.04-.29-.06-.51.21.01.36,0,.49.04,1.83.57,3.66,1.12,5.47,1.73.3.1.67.36.76.63.68,1.99,1.29,4,2.01,6.3ZM87.52,48.57c.07-.08.15-.16.22-.24-.37-1.19-.74-2.38-1.11-3.57-.13-.43-.47-.58-.87-.7-.9-.27-1.79-.58-2.69-.85-.24-.07-.5-.06-.93-.1.44,1.37.81,2.6,1.23,3.81.07.19.29.4.48.47,1.21.41,2.44.79,3.66,1.18Z"/>
    <path class="cls-1" d="M237.96,198.71c.26.05.48.06.7.13,1.71.54,3.42,1.09,5.14,1.62.44.14.76.34.91.81.57,1.87,1.16,3.73,1.74,5.59.03.1.01.22.02.44-.29-.05-.55-.06-.79-.13-1.68-.52-3.35-1.07-5.03-1.59-.43-.13-.8-.29-.95-.77-.59-1.9-1.18-3.8-1.77-5.7-.03-.1.01-.22.03-.4ZM239.37,200.15c.26.91.42,1.55.63,2.16.9,2.69.19,2.01,2.93,2.91.61.2,1.24.36,2.02.58-.29-1.5-.75-2.74-1.19-3.98-.06-.19-.31-.37-.51-.44-1.18-.4-2.38-.76-3.88-1.24Z"/>
    <path class="cls-1" d="M80.74,198.71c.26.05.48.06.7.13,1.71.54,3.42,1.09,5.14,1.62.44.14.76.34.91.81.57,1.87,1.16,3.73,1.74,5.59.03.1.01.22.02.44-.29-.05-.55-.06-.79-.13-1.68-.52-3.35-1.07-5.03-1.59-.43-.13-.8-.29-.95-.77-.59-1.9-1.18-3.8-1.77-5.7-.03-.1.01-.22.03-.4ZM82.42,200.23c-.07.08-.14.17-.22.25.37,1.19.71,2.39,1.14,3.56.1.28.45.54.75.65.95.35,1.93.64,2.91.93.2.06.43,0,.77,0-.4-1.28-.76-2.48-1.16-3.66-.08-.23-.31-.49-.53-.57-1.21-.42-2.44-.79-3.66-1.18Z"/>
    <path class="cls-1" d="M246.45,128.8c-2.14-.67-4.15-1.29-6.14-1.96-.25-.08-.51-.39-.59-.65-.65-1.96-1.26-3.93-1.92-6.06.43.06.72.06.99.14,1.64.51,3.27,1.05,4.91,1.55.47.15.85.33,1.01.85.57,1.87,1.16,3.73,1.74,5.59.03.1,0,.22,0,.54ZM239.36,121.54c.27.93.43,1.56.64,2.18.89,2.67.22,1.99,2.84,2.86.65.21,1.28.54,2.17.5-.42-1.34-.79-2.57-1.21-3.78-.08-.22-.34-.45-.57-.53-1.18-.41-2.38-.76-3.87-1.23Z"/>
    <path class="cls-1" d="M159.3,198.73c.21.02.37,0,.5.05,1.83.57,3.66,1.12,5.47,1.73.3.1.66.37.75.64.67,1.99,1.28,4,1.96,6.15-.41-.06-.67-.06-.91-.13-1.71-.53-3.42-1.09-5.14-1.62-.45-.14-.74-.38-.88-.84-.56-1.83-1.14-3.65-1.71-5.48-.04-.14-.03-.29-.05-.5ZM166.14,205.79c.07-.08.15-.16.22-.24-.37-1.19-.72-2.39-1.14-3.56-.1-.28-.45-.54-.74-.65-.91-.34-1.86-.62-2.79-.9-.24-.07-.5-.05-.9-.09.42,1.33.77,2.52,1.18,3.7.08.23.31.49.53.57,1.21.42,2.44.79,3.66,1.18Z"/>
    <path class="cls-1" d="M2.11,198.62c2.13.67,4.14,1.29,6.14,1.96.25.08.51.39.59.66.65,1.96,1.26,3.93,1.92,6.04-.38-.04-.64-.02-.87-.09-1.72-.53-3.42-1.09-5.14-1.62-.44-.14-.76-.35-.9-.82-.57-1.87-1.16-3.73-1.74-5.59-.03-.1,0-.22,0-.54ZM9.22,205.81c-.46-1.46-.8-2.66-1.23-3.83-.1-.27-.46-.54-.75-.64-.99-.36-2.01-.66-3.02-.96-.16-.05-.35,0-.66,0,.41,1.32.78,2.51,1.17,3.7.07.2.25.45.43.52,1.24.44,2.49.88,4.05,1.23Z"/>
    <path class="cls-1" d="M10.62,286.02c-2.1-.66-4.08-1.26-6.03-1.92-.28-.1-.6-.41-.7-.7-.66-1.96-1.26-3.93-1.93-6.06.43.06.72.06.99.14,1.68.52,3.35,1.07,5.03,1.59.44.14.76.36.9.82.57,1.87,1.16,3.73,1.74,5.59.03.1,0,.22,0,.53ZM3.54,278.76c.26.91.42,1.55.63,2.16.9,2.69.21,2.01,2.93,2.91.61.2,1.24.36,2.03.58-.3-1.5-.76-2.74-1.19-3.98-.06-.19-.31-.37-.51-.44-1.18-.4-2.38-.76-3.88-1.24Z"/>
    <path class="cls-1" d="M89.23,286.02c-2.13-.67-4.14-1.29-6.14-1.96-.25-.08-.51-.39-.59-.65-.65-1.96-1.26-3.93-1.92-6.04.38.04.64.02.87.09,1.72.53,3.42,1.09,5.14,1.62.44.14.76.35.9.82.57,1.87,1.16,3.73,1.74,5.59.03.1,0,.22,0,.54ZM82.4,278.91c-.06.15-.13.24-.11.29.34,1.16.66,2.34,1.07,3.48.1.27.46.53.76.64.95.35,1.93.64,2.91.93.19.06.42,0,.75,0-.41-1.31-.78-2.5-1.17-3.68-.07-.2-.25-.45-.44-.51-1.24-.43-2.48-.89-3.76-1.15Z"/>
    <path class="cls-1" d="M159.3,41.51c.21.02.37,0,.5.05,1.83.57,3.66,1.12,5.47,1.73.3.1.66.37.75.64.67,1.99,1.28,4,1.96,6.15-.41-.05-.67-.05-.91-.13-1.71-.53-3.42-1.09-5.14-1.62-.45-.14-.74-.38-.88-.84-.56-1.83-1.14-3.65-1.71-5.48-.04-.14-.03-.29-.05-.5ZM166.12,48.56c.07-.07.15-.14.23-.21-.16-.55-.31-1.11-.49-1.66-1-2.97-.21-2.17-3.13-3.15-.57-.19-1.16-.33-1.99-.56.47,1.48.84,2.7,1.26,3.91.08.22.34.45.57.53,1.18.4,2.38.76,3.57,1.13Z"/>
    <path class="cls-1" d="M159.22,277.21c1.51.47,2.82.86,4.11,1.28.85.28,1.87.41,2.46.98.55.53.64,1.55.91,2.36.33,1,.65,2.01.96,3.01.1.32.15.66.25,1.1-.42-.08-.72-.12-1-.21-1.57-.49-3.12-1.02-4.69-1.48-.67-.19-1.05-.52-1.25-1.21-.45-1.58-.98-3.13-1.47-4.69-.09-.29-.14-.6-.27-1.14ZM161.04,278.84c-.07.08-.15.16-.22.25.37,1.19.71,2.39,1.14,3.57.1.28.45.54.75.65.95.35,1.93.64,2.91.93.2.06.43,0,.77,0-.4-1.28-.76-2.47-1.16-3.65-.08-.23-.31-.49-.53-.57-1.21-.42-2.43-.79-3.66-1.18Z"/>
    <path class="cls-1" d="M246.45,50.19c-2.1-.66-4.08-1.26-6.03-1.92-.29-.1-.6-.41-.7-.7-.66-1.96-1.26-3.93-1.93-6.06.43.06.72.06.99.14,1.64.51,3.27,1.05,4.91,1.55.47.15.85.33,1.01.85.57,1.87,1.16,3.73,1.74,5.59.03.1,0,.22,0,.53ZM239.37,42.92c.29.99.46,1.7.69,2.39.81,2.4.2,1.8,2.64,2.62.69.23,1.39.4,2.29.66-.36-1.5-.78-2.75-1.23-3.99-.07-.19-.31-.37-.51-.44-1.18-.4-2.38-.76-3.89-1.24Z"/>
    <path class="cls-1" d="M246.64,286.05c-1.03-.31-1.77-.52-2.51-.75-1.19-.37-2.38-.76-3.57-1.13-.4-.12-.72-.3-.85-.72-.6-1.94-1.2-3.88-1.8-5.82-.02-.06.03-.14.07-.29.21.03.44.04.64.11,1.71.54,3.42,1.09,5.14,1.62.39.12.75.26.88.68.63,2,1.27,4.01,1.99,6.3ZM239.65,278.84c-.07.08-.15.17-.22.25.37,1.19.71,2.39,1.14,3.56.1.28.45.54.74.65.95.35,1.93.64,2.91.93.2.06.43,0,.77,0-.4-1.28-.76-2.47-1.16-3.65-.08-.23-.31-.49-.53-.57-1.21-.42-2.44-.79-3.66-1.18Z"/>
    <path class="cls-1" d="M2.11,120.02c1.6.5,3.1.93,4.57,1.43,2.42.82,1.81.18,2.63,2.61.39,1.15.73,2.31,1.09,3.46.11.36.19.72.31,1.21-.45-.09-.75-.13-1.03-.22-1.6-.5-3.2-1.02-4.8-1.52-.47-.14-.86-.31-1.02-.84-.57-1.87-1.16-3.73-1.74-5.59-.03-.1,0-.22,0-.54ZM9.2,127.21c-.32-1.05-.55-1.87-.81-2.67-.63-1.93-.25-1.54-2.2-2.17-.8-.26-1.58-.61-2.43-.68-.05.18-.1.26-.08.33.15.57.3,1.13.49,1.69.9,2.68.2,2,2.94,2.9.61.2,1.24.36,2.1.6Z"/>
    <path class="cls-1" d="M196.68,11.28c.61-.18,1.16-.34,1.79-.52.11.75-.15,1.3-.37,1.84-1.05-.06-1.11-.12-1.41-1.32Z"/>
    <path class="cls-1" d="M247.07,12.68c-.16-.62-.29-1.17-.46-1.84.74.02,1.29.19,1.82.46-.07,1-.18,1.12-1.36,1.38Z"/>
    <path class="cls-1" d="M276.69,12.7c-.92-.08-1.32-.49-1.4-1.39.58-.18,1.14-.35,1.81-.55.08.76-.17,1.31-.41,1.95Z"/>
    <path class="cls-1" d="M89.83,91.23c-.13-.56-.27-1.14-.46-1.92.75.23,1.29.39,1.81.54-.02,1.08-.2,1.26-1.35,1.37Z"/>
    <path class="cls-1" d="M198.48,120c-.65-.17-1.2-.31-1.73-.46.13-1.12.21-1.21,1.26-1.41.34.53.55,1.1.47,1.87Z"/>
    <path class="cls-1" d="M120.08,89.31c-.26.87-.43,1.41-.58,1.94-1.11-.16-1.18-.23-1.4-1.36.56-.16,1.13-.33,1.98-.58Z"/>
    <path class="cls-1" d="M277.28,120.01c-.79-.2-1.36-.34-1.92-.48.14-1.13.23-1.21,1.34-1.42.17.55.34,1.11.58,1.89Z"/>
    <path class="cls-1" d="M286.5,157.27c1,.07,1.35.53,1.45,1.4-.59.18-1.16.35-1.97.59.21-.79.36-1.36.52-1.99Z"/>
    <path class="cls-1" d="M12.63,168.49c-.16,1.09-.26,1.19-1.4,1.38-.14-.56-.29-1.13-.5-1.94.78.23,1.35.4,1.89.56Z"/>
    <path class="cls-1" d="M39.47,168.49c.62-.18,1.16-.33,1.79-.52.07.76-.17,1.31-.38,1.86-1.07-.09-1.14-.15-1.42-1.34Z"/>
    <path class="cls-1" d="M89.79,169.83c-.13-.63-.25-1.17-.4-1.9.74.22,1.28.39,1.8.55-.06,1.09-.24,1.27-1.4,1.35Z"/>
    <path class="cls-1" d="M118.09,168.49c.62-.18,1.16-.34,1.94-.56-.2.79-.35,1.37-.5,1.92-1.12-.12-1.19-.18-1.45-1.36Z"/>
    <path class="cls-1" d="M169.92,168.52c-.14.98-.58,1.34-1.46,1.4-.15-.62-.3-1.19-.5-1.99.78.24,1.35.41,1.96.59Z"/>
    <path class="cls-1" d="M198.12,169.93c-.98-.1-1.38-.51-1.43-1.41.57-.17,1.14-.34,1.95-.58-.21.79-.36,1.37-.52,2Z"/>
    <path class="cls-1" d="M247.05,169.84c-.13-.56-.27-1.14-.46-1.92.75.23,1.29.39,1.81.54-.02,1.08-.2,1.26-1.35,1.37Z"/>
    <path class="cls-1" d="M276.68,169.91c-.89-.05-1.28-.47-1.4-1.37.58-.18,1.14-.36,1.78-.57.15.75-.14,1.29-.38,1.94Z"/>
    <path class="cls-1" d="M39.47,198.16c.04-1,.5-1.34,1.35-1.5.2.61.38,1.17.62,1.95-.77-.17-1.35-.3-1.98-.45Z"/>
    <path class="cls-1" d="M120.06,198.62c-.79-.19-1.36-.33-1.92-.47.13-1.12.21-1.21,1.33-1.42.17.55.34,1.11.59,1.89Z"/>
    <path class="cls-1" d="M198.69,198.63c-.8-.19-1.35-.32-1.88-.45-.03-1.08.15-1.28,1.28-1.44.17.53.34,1.06.6,1.88Z"/>
    <path class="cls-1" d="M277.09,198.61c-.65-.17-1.2-.32-1.73-.46.13-1.12.21-1.21,1.26-1.41.34.53.55,1.1.47,1.87Z"/>
    <path class="cls-1" d="M169.88,89.88c-.21,1.14-.3,1.22-1.42,1.37-.14-.56-.28-1.13-.48-1.93.75.22,1.29.38,1.9.56Z"/>
    <path class="cls-1" d="M39.47,40.94c.25-1.19.37-1.3,1.38-1.39.07.16.17.32.23.5.1.37.18.74.31,1.3-.7-.15-1.27-.27-1.92-.41Z"/>
    <path class="cls-1" d="M235.95,158.64c.11-1.01.21-1.12,1.36-1.34.15.56.3,1.13.49,1.83-.77-.04-1.33-.19-1.85-.49Z"/>
    <path class="cls-1" d="M209.29,158.7c-.56.16-1.13.32-1.94.54.24-.82.4-1.39.56-1.94,1.13.21,1.2.27,1.38,1.4Z"/>
    <path class="cls-1" d="M198.66,89.42c-.22.75-.38,1.29-.54,1.82-1.1-.13-1.16-.19-1.4-1.26.54-.4,1.15-.45,1.94-.56Z"/>
    <path class="cls-1" d="M118.13,40.86c.16-1.08.25-1.17,1.34-1.35.17.52.34,1.06.54,1.67-.76.23-1.31-.11-1.88-.33Z"/>
    <path class="cls-1" d="M158.71,157.32c.13.48.26.88.36,1.29.03.14,0,.3,0,.61-.65-.19-1.21-.36-1.76-.53.16-1.1.26-1.19,1.39-1.37Z"/>
    <path class="cls-1" d="M247.05,91.23c-.13-.56-.27-1.14-.46-1.92.76.23,1.29.39,1.81.54-.02,1.08-.2,1.26-1.35,1.37Z"/>
    <path class="cls-1" d="M196.75,40.93c.13-1.12.21-1.21,1.33-1.43.17.55.34,1.12.58,1.89-.78-.19-1.36-.33-1.92-.47Z"/>
    <path class="cls-1" d="M129.39,157.27c.93.1,1.28.56,1.33,1.41-.58.18-1.13.34-1.75.53-.17-.77.11-1.33.42-1.93Z"/>
    <path class="cls-1" d="M275.3,89.88c.62-.18,1.16-.33,1.8-.52.07.76-.17,1.31-.38,1.86-1.08-.09-1.14-.15-1.42-1.34Z"/>
    <path class="cls-1" d="M276.7,39.52c.17.52.34,1.06.53,1.66-.72.25-1.25-.15-1.8-.24-.04-1.06.14-1.25,1.27-1.42Z"/>
    <path class="cls-1" d="M89.32,10.68c.83.26,1.37.42,1.89.58-.09,1.05-.2,1.17-1.35,1.41-.15-.56-.31-1.13-.55-1.99Z"/>
    <path class="cls-1" d="M52.1,50.65c-.06.98-.49,1.36-1.37,1.46-.18-.57-.36-1.14-.61-1.91.77.17,1.34.3,1.99.45Z"/>
    <path class="cls-1" d="M129.31,52.1c-.18-.61-.35-1.15-.58-1.9.76.17,1.34.3,1.9.42-.07,1.1-.15,1.2-1.32,1.47Z"/>
    <path class="cls-1" d="M207.35,50.26c.43.04.62.03.8.08.37.1.73.23,1.08.33-.05,1.05-.13,1.14-1.28,1.42-.18-.55-.36-1.11-.6-1.84Z"/>
    <path class="cls-1" d="M52.08,207.82c-.2,1.21-.29,1.3-1.37,1.46-.17-.52-.34-1.06-.53-1.66.73-.3,1.24.19,1.9.19Z"/>
    <path class="cls-1" d="M130.65,207.87c-.11,1.12-.2,1.21-1.32,1.43-.17-.55-.35-1.11-.59-1.89.78.19,1.35.32,1.91.46Z"/>
    <path class="cls-1" d="M207.54,207.42c.65.17,1.2.32,1.73.46-.13,1.12-.21,1.21-1.26,1.41-.34-.53-.55-1.1-.47-1.87Z"/>
    <path class="cls-1" d="M287.87,207.87c-.11,1.12-.2,1.21-1.32,1.43-.17-.55-.35-1.11-.59-1.89.78.19,1.35.32,1.91.46Z"/>
    <path class="cls-1" d="M1.5,235.9c.15.62.29,1.16.45,1.82-.75,0-1.3-.19-1.83-.45.11-1.03.21-1.14,1.38-1.37Z"/>
    <path class="cls-1" d="M50.75,235.88c.89.08,1.29.49,1.37,1.39-.58.18-1.14.35-1.81.55-.06-.76.16-1.31.45-1.95Z"/>
    <path class="cls-1" d="M80.41,237.82c-.61-.19-1.15-.35-1.67-.51.09-1.05.2-1.17,1.27-1.39.3.56.54,1.13.4,1.91Z"/>
    <path class="cls-1" d="M130.71,237.26c-.28.11-.49.21-.71.27-.33.09-.67.15-1.08.24-.09-.71.16-1.25.39-1.8,1.05.07,1.11.12,1.4,1.28Z"/>
    <path class="cls-1" d="M159.19,237.87c-.76-.23-1.29-.38-1.81-.54,0-1.07.18-1.25,1.34-1.38.14.56.28,1.13.47,1.92Z"/>
    <path class="cls-1" d="M209.31,237.29c-.56.17-1.13.33-1.94.57.21-.8.37-1.37.51-1.93,1.12.14,1.19.21,1.43,1.35Z"/>
    <path class="cls-1" d="M237.32,235.89c.16.62.29,1.17.46,1.84-.74-.01-1.29-.19-1.82-.46.07-1,.18-1.12,1.36-1.38Z"/>
    <path class="cls-1" d="M286.62,235.87c.91.12,1.3.54,1.3,1.42-.55.17-1.1.33-1.72.52-.17-.77.1-1.33.42-1.94Z"/>
    <path class="cls-1" d="M285.93,50.16c.84.21,1.39.35,1.92.49-.05,1.08-.13,1.17-1.28,1.45-.18-.55-.37-1.11-.64-1.94Z"/>
    <path class="cls-1" d="M50.7,130.72c-.18-.6-.35-1.15-.58-1.89.76.17,1.33.29,1.89.42-.06,1.1-.14,1.2-1.32,1.48Z"/>
    <path class="cls-1" d="M128.93,128.81c.65.17,1.2.32,1.73.46-.13,1.12-.21,1.21-1.26,1.41-.34-.53-.55-1.1-.47-1.87Z"/>
    <path class="cls-1" d="M207.32,128.78c.83.21,1.4.35,1.96.49-.16,1.13-.24,1.22-1.34,1.41-.17-.52-.34-1.06-.62-1.9Z"/>
    <path class="cls-1" d="M285.94,128.79c.8.19,1.35.32,1.88.45.03,1.08-.15,1.28-1.28,1.44-.17-.52-.34-1.06-.6-1.88Z"/>
    <path class="cls-1" d="M80.41,159.21c-.61-.19-1.15-.35-1.67-.51.09-1.04.2-1.16,1.27-1.39.3.56.54,1.13.4,1.9Z"/>
    <path class="cls-1" d="M50.68,157.31c1.13.18,1.2.25,1.4,1.38-.56.16-1.13.33-1.95.56.23-.81.39-1.38.54-1.94Z"/>
    <path class="cls-1" d="M2.02,159.28c-.83-.26-1.37-.42-1.9-.58.09-1.05.2-1.16,1.34-1.4.16.56.31,1.13.55,1.99Z"/>
    <path class="cls-1" d="M.07,80.09c.21-1.14.3-1.22,1.42-1.37.14.56.28,1.13.48,1.93-.76-.22-1.29-.38-1.9-.56Z"/>
    <path class="cls-1" d="M50.73,78.66c.89.05,1.28.47,1.4,1.37-.58.18-1.14.36-1.78.57-.15-.75.14-1.29.38-1.94Z"/>
    <path class="cls-1" d="M80.57,80.64c-.75-.22-1.29-.38-1.81-.54.03-1.08.2-1.26,1.36-1.38.13.56.27,1.14.45,1.91Z"/>
    <path class="cls-1" d="M130.7,80.07c-.56.17-1.13.34-1.94.58.21-.8.37-1.37.51-1.93,1.12.14,1.19.21,1.43,1.35Z"/>
    <path class="cls-1" d="M157.31,80.08c.16-1.09.25-1.19,1.4-1.38.14.56.29,1.13.5,1.94-.78-.23-1.34-.4-1.89-.56Z"/>
    <path class="cls-1" d="M207.97,78.65c.89.08,1.29.49,1.37,1.39-.58.18-1.14.35-1.81.55-.06-.76.16-1.31.45-1.95Z"/>
    <path class="cls-1" d="M237.32,78.67c.16.62.29,1.16.46,1.84-.74-.01-1.29-.19-1.82-.46.07-1,.18-1.12,1.36-1.38Z"/>
    <path class="cls-1" d="M287.93,80.04c-.32.12-.57.22-.82.3-.29.08-.59.13-.97.21-.08-.71.18-1.25.38-1.8,1.08.09,1.14.14,1.41,1.3Z"/>
    <path class="cls-1" d="M12.66,247.1c-.22,1.15-.31,1.23-1.43,1.36-.14-.56-.28-1.13-.47-1.92.75.22,1.29.38,1.9.57Z"/>
    <path class="cls-1" d="M41.38,246.81c-.17.57-.34,1.14-.51,1.71-.91-.04-1.3-.46-1.43-1.37.57-.18,1.14-.37,1.7-.55.08.07.15.14.23.21Z"/>
    <path class="cls-1" d="M89.79,248.44c-.13-.63-.25-1.17-.4-1.9.74.22,1.28.39,1.8.54-.06,1.09-.24,1.27-1.4,1.35Z"/>
    <path class="cls-1" d="M119.51,248.53c-.99-.08-1.36-.52-1.45-1.4.59-.17,1.16-.34,1.96-.59-.21.79-.35,1.36-.52,1.99Z"/>
    <path class="cls-1" d="M169.88,247.11c-.24,1.16-.33,1.24-1.45,1.35-.13-.56-.27-1.14-.45-1.91.75.22,1.29.38,1.9.56Z"/>
    <path class="cls-1" d="M198.69,246.53c-.25.85-.41,1.4-.57,1.93-1.1-.12-1.16-.18-1.42-1.33.56-.17,1.13-.34,1.99-.6Z"/>
    <path class="cls-1" d="M248.52,247.18c-.12.85-.5,1.29-1.42,1.33-.16-.57-.32-1.13-.52-1.84.77.02,1.32.19,1.94.51Z"/>
    <path class="cls-1" d="M275.3,247.11c.61-.18,1.16-.34,1.79-.52.11.75-.17,1.3-.35,1.85-1.08-.07-1.14-.13-1.43-1.33Z"/>
    <path class="cls-1" d="M39.48,276.78c.24-1.19.36-1.3,1.41-1.39.16.52.33,1.06.56,1.82-.75-.16-1.32-.28-1.97-.42Z"/>
    <path class="cls-1" d="M119.49,275.32c.18.61.34,1.15.57,1.9-.77-.18-1.34-.31-1.91-.44.1-1.11.18-1.2,1.34-1.46Z"/>
    <path class="cls-1" d="M198.11,275.38c.16.52.33,1.06.57,1.82-.75-.16-1.32-.28-1.87-.4.02-1.11.2-1.31,1.31-1.42Z"/>
    <path class="cls-1" d="M275.35,276.7c.16-1.08.25-1.17,1.34-1.35.17.52.34,1.06.54,1.67-.76.23-1.31-.11-1.88-.33Z"/>
    <path class="cls-1" d="M1.49.05c.16.62.3,1.16.44,1.73q-.82.04-1.71-.3C.07.56.25.33,1.49.05Z"/>
    <path class="cls-1" d="M12.64,89.88c-.17,1.1-.26,1.19-1.4,1.37-.14-.56-.29-1.13-.49-1.94.78.23,1.34.4,1.89.57Z"/>
    <path class="cls-1" d="M50.2,1.76c.17-.57.34-1.14.51-1.71.9.05,1.32.45,1.41,1.37-.56.18-1.12.36-1.69.54-.08-.07-.15-.14-.23-.21Z"/>
    <path class="cls-1" d="M80.12.09c.15.62.28,1.17.46,1.94-.77-.23-1.34-.4-1.89-.56.16-1.1.26-1.19,1.42-1.38Z"/>
    <path class="cls-1" d="M39.47,119.55c.25-1.19.37-1.3,1.38-1.39.07.16.18.32.23.5.1.37.18.74.31,1.3-.7-.15-1.27-.27-1.92-.41Z"/>
    <path class="cls-1" d="M130.72,1.46c-.61.18-1.16.34-1.78.52-.13-.75.17-1.29.34-1.84,1.08.06,1.13.11,1.44,1.32Z"/>
    <path class="cls-1" d="M158.72.04c.15.65.28,1.22.46,1.99-.75-.23-1.29-.39-1.81-.54.04-1.02.16-1.16,1.35-1.45Z"/>
    <path class="cls-1" d="M40.9,91.26c-1.13-.18-1.2-.25-1.4-1.38.56-.16,1.13-.32,1.94-.56-.23.81-.39,1.38-.54,1.94Z"/>
    <path class="cls-1" d="M209.31,1.46c-.56.16-1.13.33-1.94.57.22-.81.37-1.38.52-1.93,1.12.16,1.19.22,1.42,1.36Z"/>
    <path class="cls-1" d="M235.84,1.44c.19-.94.57-1.37,1.48-1.37.15.59.29,1.17.5,1.97-.78-.24-1.35-.41-1.97-.6Z"/>
    <path class="cls-1" d="M119.5,118.16c.16.52.33,1.06.56,1.82-.75-.16-1.32-.28-1.88-.4.02-1.12.21-1.31,1.31-1.42Z"/>
    <path class="cls-1" d="M286.02,1.76c.16-.54.31-1.08.46-1.61,1.08.03,1.14.08,1.46,1.27-.56.18-1.12.36-1.69.54-.08-.07-.16-.14-.24-.21Z"/>
    <path class="cls-1" d="M12.63,11.27c-.16,1.09-.26,1.19-1.4,1.38-.14-.56-.29-1.13-.5-1.95.78.23,1.35.4,1.89.56Z"/>
    <path class="cls-1" d="M40.79,12.7c-.91-.12-1.3-.54-1.3-1.42.55-.17,1.1-.33,1.72-.52.17.77-.1,1.33-.42,1.94Z"/>
    <path class="cls-1" d="M118.06,11.28c.61-.18,1.16-.34,1.77-.52.17.74-.16,1.27-.31,1.83-1.08-.04-1.13-.09-1.46-1.3Z"/>
    <path class="cls-1" d="M167.93,10.68c.83.26,1.37.42,1.89.58-.09,1.05-.2,1.17-1.35,1.41-.15-.56-.31-1.13-.55-1.99Z"/>
    <path class="cls-1" d="M50.12,286.02c.79.2,1.36.34,1.93.48-.14,1.13-.22,1.21-1.34,1.42-.17-.55-.34-1.11-.58-1.89Z"/>
    <path class="cls-1" d="M128.73,286.02c.79.19,1.36.33,1.92.47-.13,1.12-.21,1.21-1.33,1.42-.17-.55-.35-1.11-.59-1.89Z"/>
    <path class="cls-1" d="M209.33,286.49c-.06.98-.49,1.36-1.37,1.46-.18-.57-.37-1.13-.62-1.91.77.17,1.35.3,1.99.45Z"/>
    <path class="cls-1" d="M286.54,287.91c-.17-.55-.34-1.11-.58-1.9.79.2,1.37.34,1.93.48-.15,1.13-.23,1.22-1.35,1.42Z"/>
    <path class="cls-1" d="M12.65,276.76c-.58.14-1.09.26-1.63.39-.28-.74.14-1.22.19-1.75,1.08.05,1.24.2,1.44,1.36Z"/>
    <path class="cls-1" d="M1.94,128.81c-.18.79-.3,1.3-.42,1.79-1.08.03-1.31-.19-1.4-1.33.49-.12,1-.25,1.81-.46Z"/>
    <path class="cls-1" d="M91.18,276.8c-.56.13-1.04.24-1.55.36-.28-.73.14-1.22.18-1.75,1.13.05,1.36.28,1.37,1.39Z"/>
    <path class="cls-1" d="M80.55,128.81c-.18.78-.29,1.29-.41,1.78-1.08.05-1.31-.17-1.41-1.32.49-.12,1-.25,1.81-.46Z"/>
    <path class="cls-1" d="M168.42,275.34c1.19.2,1.34.36,1.39,1.39-.31.11-.63.23-.96.32-.18.05-.38.03-.6.04-.33-.65.15-1.13.17-1.75Z"/>
    <path class="cls-1" d="M159.12,129.09c-.14.54-.27,1.06-.39,1.55-1.08-.08-1.24-.23-1.39-1.28.53-.23,1.05-.58,1.79-.26Z"/>
    <path class="cls-1" d="M248.42,276.77c-.49.12-1,.25-1.55.38-.3-.71.07-1.21.21-1.73,1.05,0,1.28.23,1.34,1.35Z"/>
    <path class="cls-1" d="M235.97,129.26c.49-.12,1-.25,1.53-.38.35.71-.12,1.19-.14,1.73-1.11,0-1.34-.23-1.39-1.35Z"/>
    <path class="cls-1" d="M10.77,198.61c.21-.82.33-1.33.46-1.83,1.08.06,1.23.21,1.41,1.33-.52.14-1.05.28-1.87.5Z"/>
    <path class="cls-1" d="M12.63,119.55c-.58.13-1.09.24-1.82.41.17-.75.29-1.28.42-1.8,1.09.1,1.25.25,1.41,1.39Z"/>
    <path class="cls-1" d="M91.25,198.15c-.58.13-1.09.26-1.65.39-.2-.74.09-1.24.29-1.76,1.02.07,1.18.21,1.36,1.37Z"/>
    <path class="cls-1" d="M91.21,119.54c-.49.12-1,.25-1.54.39-.36-.69.06-1.19.16-1.71,1.04-.05,1.28.17,1.38,1.32Z"/>
    <path class="cls-1" d="M168.16,198.57c-.02-.36-.06-.51-.03-.65.09-.38.21-.74.31-1.1,1.05-.03,1.28.19,1.37,1.33-.49.12-1,.25-1.66.42Z"/>
    <path class="cls-1" d="M169.87,119.54c-.58.14-1.09.26-1.65.39-.21-.74.09-1.24.28-1.75,1.02.06,1.18.21,1.37,1.36Z"/>
    <path class="cls-1" d="M248.43,198.15c-.49.12-1,.25-1.54.39-.35-.69.06-1.19.17-1.71,1.04-.04,1.28.18,1.37,1.33Z"/>
    <path class="cls-1" d="M248.43,119.54c-.49.12-1,.25-1.54.39-.35-.69.06-1.19.17-1.71,1.05-.04,1.28.18,1.37,1.33Z"/>
    <path class="cls-1" d="M1.5,209.25c-1.09-.09-1.24-.24-1.4-1.35.52-.13,1.05-.27,1.82-.46-.18.76-.3,1.29-.42,1.81Z"/>
    <path class="cls-1" d="M80.57,207.41c-.21.82-.33,1.33-.46,1.83-1.07-.06-1.23-.2-1.42-1.32.52-.14,1.05-.28,1.87-.5Z"/>
    <path class="cls-1" d="M159.15,207.42c-.17.78-.29,1.29-.39,1.78-1.07.06-1.31-.15-1.41-1.31.49-.12,1-.26,1.81-.46Z"/>
    <path class="cls-1" d="M235.95,207.87c.55-.14,1.03-.26,1.54-.38.37.69-.06,1.18-.15,1.7-1.04.06-1.28-.15-1.39-1.32Z"/>
    <path class="cls-1" d="M12.61,40.94c-.55.14-1.03.26-1.54.38-.37-.69.06-1.18.15-1.7,1.04-.06,1.27.15,1.39,1.32Z"/>
    <path class="cls-1" d="M91.21,40.93c-.49.12-1,.25-1.53.38-.39-.7.11-1.18.12-1.71,1.1-.03,1.33.19,1.41,1.33Z"/>
    <path class="cls-1" d="M168.42,39.5c1.19.2,1.34.36,1.39,1.43-.49.12-1,.25-1.53.38-.36-.71.12-1.19.14-1.81Z"/>
    <path class="cls-1" d="M248.42,40.93c-.49.12-1,.25-1.53.38-.37-.71.11-1.19.13-1.72,1.1-.01,1.33.21,1.4,1.34Z"/>
    <path class="cls-1" d="M.1,50.64c.58-.13,1.09-.24,1.82-.41-.17.75-.3,1.28-.42,1.8-1.09-.09-1.25-.24-1.4-1.39Z"/>
    <path class="cls-1" d="M80.07,52.07c-1.12-.19-1.27-.35-1.32-1.42.49-.12,1-.25,1.55-.38.31.71-.07,1.2-.22,1.8Z"/>
    <path class="cls-1" d="M159.06,50.22c-.02.45,0,.65-.05.83-.09.33-.21.66-.32.97-1.02-.04-1.18-.18-1.38-1.31.52-.14,1.05-.29,1.75-.48Z"/>
    <path class="cls-1" d="M237.79,50.19c-.2.82-.33,1.34-.45,1.83-1.07-.05-1.22-.18-1.42-1.31.52-.14,1.05-.29,1.88-.51Z"/>
    <path class="cls-1" d="M1.53,287.87c-1.13-.11-1.28-.26-1.43-1.37.52-.13,1.05-.26,1.8-.44-.15.73-.25,1.24-.37,1.81Z"/>
    <path class="cls-1" d="M78.71,286.48c.58-.13,1.09-.25,1.82-.41-.17.75-.3,1.28-.42,1.8-1.09-.09-1.25-.24-1.4-1.39Z"/>
    <path class="cls-1" d="M159.16,286.03c-.18.79-.3,1.3-.42,1.79-1.08.03-1.31-.19-1.4-1.33.49-.12,1-.25,1.81-.46Z"/>
    <path class="cls-1" d="M235.92,286.49c.58-.14,1.09-.26,1.65-.39.2.74-.09,1.24-.29,1.76-1.02-.07-1.18-.21-1.36-1.37Z"/>
    <path class="cls-1" d="M236.08,196.69c.19.12.38.25.57.37-.11.14-.22.27-.34.41-.16-.16-.32-.32-.47-.47.08-.1.16-.2.24-.3Z"/>
    <path class="cls-1" d="M236.13,275.27c.17.15.34.3.51.44-.13.12-.26.24-.38.36-.14-.18-.27-.36-.41-.54.09-.09.19-.18.28-.27Z"/>
    <path class="cls-1" d="M248.32,130.73c-.19-.12-.38-.24-.57-.36.11-.14.22-.28.33-.41.16.16.32.31.48.47-.08.1-.16.2-.23.31Z"/>
    <path class="cls-1" d="M.25,39.46c.19.12.38.25.57.37-.11.14-.22.27-.33.41-.16-.16-.32-.32-.48-.48.08-.1.17-.2.25-.29Z"/>
    <path class="cls-1" d="M248.29,52.18c-.2-.18-.37-.33-.54-.49.13-.12.29-.36.38-.33.39.09.41.37.16.82Z"/>
    <path class="cls-1" d="M236.04,117.96c.27.24.44.39.61.54-.13.12-.28.35-.38.33-.42-.09-.35-.39-.22-.88Z"/>
    <path class="cls-1" d="M91.09,130.73c-.19-.12-.38-.25-.57-.37.11-.14.22-.27.33-.41.16.16.32.32.47.47-.08.1-.16.2-.24.3Z"/>
    <path class="cls-1" d="M158.28,118.34c-.34.27-.5.39-.66.52-.12-.17-.24-.33-.54-.75.51.1.74.14,1.2.23Z"/>
    <path class="cls-1" d="M12.42,209.37c-.17-.15-.34-.3-.5-.45.13-.12.26-.24.39-.35.13.18.26.36.4.54-.09.09-.19.17-.28.26Z"/>
    <path class="cls-1" d="M91.03,209.37c-.17-.15-.34-.3-.51-.45.13-.12.26-.24.39-.36.13.18.27.36.4.54-.09.09-.19.18-.28.26Z"/>
    <path class="cls-1" d="M168.83,208.99c.42-.25.68-.45.71-.42.16.16.25.37.23.72-.22-.07-.44-.14-.93-.3Z"/>
    <path class="cls-1" d="M248.28,209.36c-.18-.14-.36-.27-.54-.41.12-.13.24-.25.36-.38.15.17.3.34.45.52-.09.09-.18.18-.27.27Z"/>
    <path class="cls-1" d="M169.68,130.79c-.2-.18-.37-.33-.54-.48.13-.12.29-.35.38-.33.39.09.41.37.16.82Z"/>
    <path class="cls-1" d="M78.88,118.06c.18.13.36.27.54.4-.12.13-.24.26-.36.39-.15-.17-.3-.34-.45-.5.09-.09.17-.19.26-.28Z"/>
    <path class="cls-1" d="M12.46,130.79c-.2-.18-.37-.33-.54-.48.13-.12.29-.35.38-.33.39.09.41.37.16.82Z"/>
    <path class="cls-1" d="M.24,118.08c.19.12.38.24.58.36-.11.14-.22.28-.33.41-.16-.15-.32-.31-.48-.46.08-.1.16-.21.23-.31Z"/>
    <path class="cls-1" d="M1.12,197.04c-.42.25-.68.44-.71.41-.16-.16-.26-.37-.23-.72.22.07.44.14.93.3Z"/>
    <path class="cls-1" d="M169.65,52.15c-.17-.15-.34-.3-.51-.45.13-.12.26-.24.38-.36.14.18.27.36.41.54-.09.09-.19.18-.28.27Z"/>
    <path class="cls-1" d="M91.09,52.12c-.19-.12-.38-.24-.57-.37.11-.14.22-.27.34-.41.16.16.32.32.47.47-.08.1-.16.2-.24.3Z"/>
    <path class="cls-1" d="M78.82,196.57c.27.25.44.4.61.55-.13.12-.28.35-.38.33-.42-.09-.35-.39-.22-.88Z"/>
    <path class="cls-1" d="M.24,275.3c.19.12.38.24.57.36-.11.14-.22.28-.33.41-.16-.15-.32-.31-.48-.46.08-.1.16-.2.23-.31Z"/>
    <path class="cls-1" d="M12.39,52.15c-.16-.16-.31-.32-.47-.48.14-.11.27-.22.41-.33.12.19.24.38.36.57-.1.08-.2.16-.3.24Z"/>
    <path class="cls-1" d="M236.95,39.81c-.42.25-.68.45-.71.42-.16-.16-.25-.37-.23-.72.22.07.44.14.93.3Z"/>
    <path class="cls-1" d="M78.92,275.27c.17.15.33.3.5.45-.13.12-.26.24-.39.35-.13-.18-.27-.36-.4-.55.1-.09.19-.17.29-.26Z"/>
    <path class="cls-1" d="M157.5,196.67c.18.14.36.27.54.41-.12.13-.24.26-.36.38-.15-.17-.3-.34-.44-.51.09-.09.18-.19.27-.28Z"/>
    <path class="cls-1" d="M157.56,39.44c.16.16.31.32.47.48-.14.11-.27.22-.41.33-.12-.19-.24-.38-.37-.58.1-.08.21-.16.31-.23Z"/>
    <path class="cls-1" d="M157.46,275.3c.19.12.38.24.57.36-.11.14-.22.28-.33.41-.16-.15-.32-.31-.48-.46.08-.1.16-.2.23-.31Z"/>
    <path class="cls-1" d="M78.92,39.44c.17.15.34.3.5.45-.13.12-.26.24-.39.35-.13-.18-.27-.36-.4-.55.1-.09.19-.17.29-.26Z"/>
    <path class="cls-1" d="M12.39,287.98c-.16-.16-.32-.32-.47-.47.14-.11.27-.22.41-.33.12.19.24.38.37.57-.1.08-.2.16-.3.24Z"/>
    <path class="cls-1" d="M90.99,287.98c-.15-.16-.31-.32-.46-.48.14-.11.28-.22.42-.33.12.19.24.39.35.58-.1.08-.21.16-.31.23Z"/>
    <path class="cls-1" d="M169.71,287.95c-.19-.12-.38-.24-.57-.36.11-.14.22-.28.33-.41.16.16.32.31.49.47-.08.1-.16.2-.24.3Z"/>
    <path class="cls-1" d="M248.26,287.98c-.17-.15-.34-.3-.51-.45.13-.12.26-.24.38-.36.13.18.27.36.41.54-.09.09-.19.18-.28.27Z"/>
    <path class="cls-1" d="M130.71,39.65c-.11.2-.22.39-.32.59-.13-.1-.26-.2-.4-.3.14-.17.28-.33.42-.5.1.07.2.14.3.21Z"/>
    <path class="cls-1" d="M12.71,236.13c-.14.16-.29.33-.43.49-.12-.11-.25-.23-.37-.34.18-.14.35-.28.53-.41.09.09.18.18.27.27Z"/>
    <path class="cls-1" d="M39.77,235.85c.14.17.28.34.43.51-.11.09-.3.26-.32.25-.16-.15-.29-.33-.43-.5.11-.08.21-.17.32-.25Z"/>
    <path class="cls-1" d="M209.21,39.53c.08.36.1.66-.32.7-.09,0-.27-.18-.28-.29-.03-.45.28-.43.6-.41Z"/>
    <path class="cls-1" d="M287.92,39.64c-.1.2-.21.4-.31.6-.13-.1-.27-.2-.4-.3.13-.17.27-.33.41-.5.1.07.21.14.31.21Z"/>
    <path class="cls-1" d="M91.33,236.21c-.17.14-.34.27-.5.41-.1-.13-.2-.27-.3-.4.2-.1.4-.21.6-.31.07.1.14.21.21.31Z"/>
    <path class="cls-1" d="M118.32,235.86c.16.15.33.3.49.45-.09.1-.19.21-.28.31-.16-.16-.32-.31-.48-.47.09-.1.18-.19.27-.29Z"/>
    <path class="cls-1" d="M39.48,51.94c.11-.2.22-.39.32-.59.13.1.26.2.4.3-.14.17-.28.34-.42.5-.1-.07-.2-.15-.3-.22Z"/>
    <path class="cls-1" d="M118.2,52.06c-.08-.35-.11-.64.3-.7.09-.01.29.16.3.27.04.44-.26.45-.59.43Z"/>
    <path class="cls-1" d="M169.92,236.11c-.13.17-.27.34-.4.51-.13-.11-.26-.21-.39-.32.17-.15.33-.29.5-.44.09.08.19.17.29.25Z"/>
    <path class="cls-1" d="M196.96,235.85c.16.16.31.32.47.49-.1.09-.21.19-.31.28-.15-.17-.3-.33-.45-.5.1-.09.2-.18.29-.27Z"/>
    <path class="cls-1" d="M196.68,51.89c.13-.18.26-.37.39-.55.12.12.24.23.36.35-.16.15-.31.3-.47.45-.09-.09-.19-.17-.28-.25Z"/>
    <path class="cls-1" d="M235.84,12.42c.15-.16.3-.31.46-.47.12.12.23.24.35.36-.18.13-.37.26-.55.39-.08-.09-.17-.19-.25-.28Z"/>
    <path class="cls-1" d="M248.36,235.7c.15.63.11.89-.3.9-.1,0-.2-.18-.31-.27.15-.16.31-.32.61-.63Z"/>
    <path class="cls-1" d="M275.61,235.85c.14.17.28.34.42.51-.11.09-.3.26-.32.24-.16-.15-.29-.33-.42-.51.11-.08.21-.16.32-.25Z"/>
    <path class="cls-1" d="M275.29,51.91c.12-.19.24-.38.37-.56.12.11.25.22.37.33-.15.16-.3.32-.46.48-.09-.08-.19-.17-.28-.25Z"/>
    <path class="cls-1" d="M12.71,78.91c-.14.16-.29.33-.43.49-.12-.11-.25-.23-.37-.34.18-.14.35-.28.53-.42.09.09.18.18.27.27Z"/>
    <path class="cls-1" d="M39.7,78.63c.17.15.33.3.5.45-.09.1-.19.21-.28.31-.16-.16-.32-.31-.48-.47.09-.1.18-.2.27-.29Z"/>
    <path class="cls-1" d="M91.32,78.9c-.14.17-.27.33-.41.5-.13-.11-.25-.22-.38-.33.17-.14.35-.28.52-.43.09.09.18.17.27.26Z"/>
    <path class="cls-1" d="M118.26,78.54c.24.25.39.41.55.57-.1.09-.22.28-.3.27-.41-.06-.41-.34-.24-.84Z"/>
    <path class="cls-1" d="M169.75,78.48c.15.63.11.9-.3.9-.1,0-.2-.18-.31-.27.15-.16.3-.31.61-.63Z"/>
    <path class="cls-1" d="M196.92,78.63c.16.15.33.3.5.45-.09.1-.19.21-.28.31-.16-.16-.32-.31-.49-.47.09-.1.18-.2.27-.29Z"/>
    <path class="cls-1" d="M248.56,78.94c-.16.15-.32.3-.47.45-.11-.12-.22-.25-.33-.37.19-.12.38-.25.57-.37.08.1.16.19.24.29Z"/>
    <path class="cls-1" d="M275.49,78.66c.18.13.36.25.54.38-.12.12-.23.24-.35.36-.13-.18-.26-.36-.39-.54.07-.07.13-.13.2-.2Z"/>
    <path class="cls-1" d="M0,169.63c.16-.15.32-.3.47-.45.11.12.22.25.33.37-.19.12-.38.25-.56.37-.08-.09-.16-.19-.24-.29Z"/>
    <path class="cls-1" d="M51.86,169.94c-.16-.15-.32-.31-.48-.46.1-.1.2-.2.29-.3.16.16.32.32.48.49-.1.09-.19.18-.29.28Z"/>
    <path class="cls-1" d="M78.61,169.62c.16-.15.32-.29.48-.44.11.13.22.25.32.38-.19.12-.38.23-.58.35-.08-.1-.15-.2-.23-.29Z"/>
    <path class="cls-1" d="M130.41,169.95c-.14-.17-.28-.34-.42-.51.11-.08.3-.26.32-.24.16.15.29.33.42.51-.11.08-.21.16-.32.25Z"/>
    <path class="cls-1" d="M157.32,169.79c0-.41.05-.7.49-.58.1.03.23.25.21.33-.12.41-.41.3-.7.25Z"/>
    <path class="cls-1" d="M209.02,169.95c-.14-.17-.28-.34-.42-.51.11-.09.3-.26.32-.24.16.15.29.33.42.51-.11.08-.21.16-.32.25Z"/>
    <path class="cls-1" d="M235.84,169.59c.17-.14.33-.28.5-.42.1.13.2.26.31.4-.2.11-.4.22-.59.32-.07-.1-.14-.2-.21-.31Z"/>
    <path class="cls-1" d="M287.63,169.95c-.14-.17-.28-.34-.42-.51.11-.08.3-.26.32-.24.16.15.29.33.42.51-.11.08-.21.16-.32.25Z"/>
    <path class="cls-1" d="M0,91.01c.16-.15.32-.29.48-.44.11.13.22.25.32.38-.19.12-.39.24-.58.36-.08-.1-.15-.2-.22-.3Z"/>
    <path class="cls-1" d="M51.8,91.34c-.14-.17-.28-.34-.43-.51.11-.09.3-.26.31-.25.16.15.29.33.43.5-.11.08-.21.17-.32.25Z"/>
    <path class="cls-1" d="M78.76,91.24c-.11-.42-.03-.67.38-.65.1,0,.28.2.27.29-.03.46-.37.33-.65.36Z"/>
    <path class="cls-1" d="M52.17,196.88c-.18.23-.32.41-.45.59-.11-.12-.34-.26-.32-.36.05-.4.33-.41.78-.22Z"/>
    <path class="cls-1" d="M130.45,91.34c-.16-.16-.31-.32-.46-.48.1-.09.21-.19.31-.28.15.17.3.34.46.51-.1.09-.2.17-.3.26Z"/>
    <path class="cls-1" d="M157.23,90.97c.17-.13.34-.27.5-.4.1.13.2.27.3.4-.2.1-.4.21-.6.31-.07-.1-.14-.21-.21-.31Z"/>
    <path class="cls-1" d="M209.12,91.31c-.17-.14-.35-.27-.51-.42-.01-.01.16-.21.24-.32.17.14.34.28.51.42-.08.11-.17.21-.25.32Z"/>
    <path class="cls-1" d="M130.72,196.9c-.12.19-.24.38-.37.56-.12-.11-.25-.22-.37-.33.15-.16.3-.32.45-.47.1.08.19.16.29.24Z"/>
    <path class="cls-1" d="M.01,248.27c.15-.16.29-.32.44-.48.12.12.24.23.36.35-.18.13-.36.27-.54.41-.09-.09-.17-.18-.26-.27Z"/>
    <path class="cls-1" d="M51.91,248.53c-.18-.13-.36-.26-.53-.39.12-.12.24-.23.35-.35.13.18.25.36.38.54-.07.07-.13.13-.2.2Z"/>
    <path class="cls-1" d="M78.61,248.24c.16-.15.32-.3.47-.45.11.12.22.25.33.37-.19.12-.38.25-.57.38-.08-.1-.16-.19-.24-.29Z"/>
    <path class="cls-1" d="M130.48,248.55c-.16-.15-.33-.3-.49-.45.09-.1.19-.21.29-.31.16.16.32.31.48.47-.09.1-.18.19-.28.29Z"/>
    <path class="cls-1" d="M157.23,248.27c.15-.16.29-.32.44-.48.12.12.24.23.36.35-.18.14-.37.27-.55.41-.08-.09-.17-.19-.25-.28Z"/>
    <path class="cls-1" d="M209.44,248.39c-.51.09-.81.12-.83-.33,0-.09.28-.27.29-.26.16.15.3.32.54.59Z"/>
    <path class="cls-1" d="M235.84,248.27c.15-.16.29-.32.44-.48.12.12.24.23.36.35-.18.13-.36.27-.54.41-.09-.09-.17-.18-.26-.27Z"/>
    <path class="cls-1" d="M287.7,248.55c-.17-.15-.33-.3-.5-.45.09-.1.19-.21.28-.31.16.16.33.32.49.47-.09.1-.19.19-.28.29Z"/>
    <path class="cls-1" d="M235.84,91.04c.15-.16.3-.31.46-.47.12.12.23.24.35.36-.18.13-.37.26-.55.39-.08-.09-.17-.19-.25-.28Z"/>
    <path class="cls-1" d="M287.67,91.34c-.15-.16-.31-.32-.46-.48.1-.09.21-.19.31-.28.15.17.3.33.45.5-.1.09-.2.18-.29.27Z"/>
    <path class="cls-1" d="M51.99,118.17c.08.31.1.61-.31.66-.09.01-.29-.17-.29-.27-.02-.41.24-.49.6-.39Z"/>
    <path class="cls-1" d="M52.11,275.5c-.12.19-.24.38-.36.57-.13-.11-.25-.22-.38-.33.15-.16.3-.32.45-.48.1.08.19.16.29.24Z"/>
    <path class="cls-1" d="M209.35,196.94c-.14.18-.28.35-.42.53-.11-.12-.22-.25-.34-.37.17-.14.33-.29.5-.43.09.09.17.18.26.27Z"/>
    <path class="cls-1" d="M130.6,118.14c.08.36.1.66-.32.69-.09,0-.27-.18-.28-.29-.03-.45.28-.42.6-.41Z"/>
    <path class="cls-1" d="M209.39,118.26c-.18.23-.32.41-.45.59-.11-.12-.34-.26-.32-.36.05-.4.33-.41.78-.22Z"/>
    <path class="cls-1" d="M130.74,275.54c-.14.18-.28.35-.42.53-.11-.12-.23-.25-.34-.37.16-.14.33-.28.49-.42.09.09.18.18.27.27Z"/>
    <path class="cls-1" d="M288,118.26c-.18.23-.32.41-.45.59-.11-.12-.34-.26-.32-.36.05-.4.33-.41.78-.22Z"/>
    <path class="cls-1" d="M287.58,196.66c.32.44.34.73-.06.79-.09.01-.31-.22-.29-.26.09-.19.23-.36.36-.53Z"/>
    <path class="cls-1" d="M39.58,130.63c-.08-.31-.1-.6.3-.66.09-.01.29.17.3.27.03.41-.23.49-.6.4Z"/>
    <path class="cls-1" d="M209.33,275.51c-.12.19-.25.37-.37.56-.12-.11-.25-.22-.37-.34.15-.16.31-.31.46-.47.09.08.19.16.28.25Z"/>
    <path class="cls-1" d="M118.44,130.76c-.32-.44-.34-.73.06-.79.09-.01.31.22.29.26-.09.19-.23.36-.36.54Z"/>
    <path class="cls-1" d="M196.67,130.46c.14-.17.29-.34.43-.51.11.13.22.26.33.38-.17.14-.34.27-.51.41-.08-.09-.16-.19-.25-.29Z"/>
    <path class="cls-1" d="M275.24,130.54c.18-.23.32-.41.45-.59.11.12.34.26.32.36-.05.4-.33.41-.78.22Z"/>
    <path class="cls-1" d="M287.95,275.52c-.13.18-.26.37-.39.55-.12-.12-.24-.23-.36-.35.16-.15.31-.3.47-.45.09.09.19.17.28.25Z"/>
    <path class="cls-1" d="M12.72.33c-.16.15-.32.3-.47.45-.11-.12-.22-.25-.33-.37.19-.12.38-.25.57-.37.08.1.16.19.24.29Z"/>
    <path class="cls-1" d="M12.71,157.52c-.14.16-.28.33-.43.49-.12-.11-.25-.23-.37-.34.18-.14.36-.28.54-.42.08.09.17.18.26.27Z"/>
    <path class="cls-1" d="M39.71,157.25c.16.15.33.3.49.45-.1.1-.19.21-.29.31-.16-.16-.32-.31-.48-.47.09-.1.18-.19.27-.29Z"/>
    <path class="cls-1" d="M39.77.01c.14.17.28.34.42.51-.11.09-.3.26-.32.24-.16-.16-.29-.34-.43-.52.11-.08.22-.16.33-.24Z"/>
    <path class="cls-1" d="M91.32.29c-.14.17-.27.33-.41.5-.13-.11-.25-.22-.38-.33.17-.14.34-.28.52-.43.09.09.18.17.28.26Z"/>
    <path class="cls-1" d="M91.33,157.53c-.15.16-.29.32-.44.48-.12-.12-.24-.23-.36-.35.18-.13.36-.27.54-.4.09.09.17.18.26.27Z"/>
    <path class="cls-1" d="M118.31,157.25c.17.15.33.3.5.45-.09.1-.19.21-.28.31-.16-.16-.32-.31-.48-.47.09-.1.18-.19.27-.29Z"/>
    <path class="cls-1" d="M118.27.05c.18.13.36.25.54.38-.12.12-.23.24-.35.36-.13-.18-.26-.36-.39-.54.07-.07.13-.13.2-.2Z"/>
    <path class="cls-1" d="M169.94.31c-.15.16-.29.32-.44.47-.12-.12-.24-.23-.36-.35.18-.14.37-.27.55-.41.08.09.16.19.25.28Z"/>
    <path class="cls-1" d="M169.93,157.52c-.14.16-.29.33-.43.49-.12-.11-.25-.23-.37-.34.18-.14.35-.28.53-.41.09.09.18.18.27.27Z"/>
    <path class="cls-1" d="M196.9,157.26c.17.14.35.27.51.42.01.01-.16.21-.24.32-.17-.14-.34-.28-.51-.42.08-.11.17-.21.25-.32Z"/>
    <path class="cls-1" d="M196.88.04c.18.13.36.26.53.39-.12.12-.24.23-.36.35-.13-.18-.25-.36-.38-.54.07-.06.13-.13.2-.2Z"/>
    <path class="cls-1" d="M248.54.3c-.14.16-.28.32-.43.49-.12-.11-.25-.23-.37-.34.18-.14.36-.28.54-.42.09.09.17.18.26.27Z"/>
    <path class="cls-1" d="M248.55,157.53c-.15.16-.29.32-.44.48-.12-.12-.24-.23-.36-.35.18-.13.36-.27.54-.4.09.09.17.18.26.27Z"/>
    <path class="cls-1" d="M275.57,157.24c.16.16.31.32.47.49-.1.09-.21.19-.31.28-.15-.17-.3-.33-.45-.5.1-.09.2-.18.29-.27Z"/>
    <path class="cls-1" d="M275.55.02c.16.15.32.31.48.46-.1.1-.19.2-.29.3-.16-.16-.32-.32-.47-.48.09-.09.19-.19.28-.28Z"/>
    <path class="cls-1" d="M.13,12.58c-.09-.37-.02-.62.39-.6.1,0,.28.2.27.29-.06.41-.35.39-.66.31Z"/>
    <path class="cls-1" d="M52.19,12.58c-.5.06-.82.1-.8-.37,0-.09.29-.25.3-.24.16.16.29.34.49.61Z"/>
    <path class="cls-1" d="M78.61,12.4c.16-.15.32-.29.48-.44.11.13.22.25.32.38-.19.12-.38.23-.58.35-.08-.1-.15-.2-.23-.29Z"/>
    <path class="cls-1" d="M130.48,12.71c-.17-.15-.34-.29-.49-.45-.01-.01.17-.2.26-.3.16.15.33.3.49.46-.09.1-.18.2-.27.3Z"/>
    <path class="cls-1" d="M157.23,12.42c.15-.16.3-.31.46-.47.12.12.23.24.35.36-.19.13-.37.26-.56.4-.08-.09-.16-.19-.24-.29Z"/>
    <path class="cls-1" d="M39.48,209.16c.11-.2.22-.39.32-.59.13.1.26.2.4.3-.14.17-.28.33-.42.5-.1-.07-.2-.14-.3-.21Z"/>
    <path class="cls-1" d="M209.11,12.7c-.17-.14-.35-.27-.5-.43-.01-.01.16-.21.25-.31.17.14.34.28.51.42-.08.11-.17.21-.25.32Z"/>
    <path class="cls-1" d="M118.06,209.11c.14-.18.27-.36.41-.54.12.12.23.24.35.36-.16.15-.32.3-.49.44-.09-.09-.18-.18-.27-.26Z"/>
    <path class="cls-1" d="M287.73,12.71c-.17-.14-.36-.27-.51-.42-.01-.01.16-.21.24-.32.17.14.34.28.51.42-.08.11-.16.21-.25.32Z"/>
    <path class="cls-1" d="M39.45,287.73c.13-.18.26-.37.39-.55.12.12.24.23.36.35-.16.15-.32.3-.48.46-.09-.09-.18-.17-.27-.26Z"/>
    <path class="cls-1" d="M196.67,209.09c.14-.18.28-.35.42-.53.11.12.22.25.34.37-.16.14-.33.28-.49.42-.09-.09-.18-.18-.27-.27Z"/>
    <path class="cls-1" d="M118.2,287.89c-.08-.35-.11-.64.3-.7.09-.01.29.16.3.27.04.44-.26.45-.59.43Z"/>
    <path class="cls-1" d="M51.99,39.56c.08.31.1.6-.3.67-.09.01-.29-.17-.3-.27-.03-.41.23-.49.6-.4Z"/>
    <path class="cls-1" d="M196.7,287.77c.11-.2.22-.39.33-.59.13.1.26.2.4.3-.14.17-.28.33-.42.5-.1-.07-.2-.14-.3-.21Z"/>
    <path class="cls-1" d="M275.29,209.13c.12-.19.25-.37.37-.56.12.11.25.23.37.34-.15.16-.31.32-.46.47-.09-.08-.18-.17-.28-.25Z"/>
    <path class="cls-1" d="M275.28,287.72c.13-.18.27-.36.41-.54.12.12.23.24.35.36-.16.15-.32.29-.48.44-.09-.09-.18-.17-.27-.26Z"/>
  </g>
</svg>