<?xml version="1.0" encoding="UTF-8"?>
<svg id="Layer_2" data-name="Layer 2" xmlns="http://www.w3.org/2000/svg" viewBox="0 0 509.91 469.69">
  <defs>
    <style>
      .cls-1 {
        fill: #df146e;
      }
    </style>
  </defs>
  <g id="Layer_1-2" data-name="Layer 1">
    <path class="cls-1" d="M397.41,265.92l-208.27-33.16,28.18,122.97,180.09-89.81ZM405.85,255.85L242.09,28.36l-53.49,193.49,217.25,34ZM178.46,219.21L6.87,0l224.72,26.86-53.12,192.36ZM95.21,128.35L0,38.59h25.02l70.19,89.76ZM456.98,145.33l-40.29,109.3-65.34-90.32,105.63-18.97ZM242.73,354.22l158.12-63.48,6.7-20.15-164.82,83.64ZM110.85,469.69l67.75-237.72,34.34,154.71-102.09,83.02ZM466.63,146.16l-16.65,45.12,59.93-1.03-43.27-44.08Z"/>
  </g>
</svg>