<?xml version="1.0" encoding="UTF-8"?>
<svg xmlns="http://www.w3.org/2000/svg" xmlns:xlink="http://www.w3.org/1999/xlink" viewBox="0 0 2700 1520">
  <defs>
    <style>
      .cls-1 {
        fill: url(#linear-gradient-2);
      }

      .cls-2 {
        fill: url(#linear-gradient-10);
      }

      .cls-3 {
        fill: #006eff;
      }

      .cls-4 {
        fill: url(#linear-gradient-4);
      }

      .cls-5 {
        fill: url(#linear-gradient-5);
      }

      .cls-5, .cls-6, .cls-7, .cls-8, .cls-9 {
        mix-blend-mode: multiply;
      }

      .cls-5, .cls-6, .cls-9 {
        opacity: .5;
      }

      .cls-10 {
        isolation: isolate;
      }

      .cls-11 {
        fill: url(#linear-gradient-8);
      }

      .cls-6 {
        fill: url(#linear-gradient-9);
      }

      .cls-12 {
        fill: url(#linear-gradient-6);
      }

      .cls-13 {
        fill: url(#linear-gradient);
      }

      .cls-8 {
        fill: url(#linear-gradient-3);
        opacity: .3;
      }

      .cls-9 {
        fill: url(#linear-gradient-7);
      }
    </style>
    <linearGradient id="linear-gradient" x1="205" y1="576.61" x2="-138.15" y2="478.57" gradientUnits="userSpaceOnUse">
      <stop offset="0" stop-color="#fff"/>
      <stop offset="1" stop-color="#f2f2f2"/>
    </linearGradient>
    <linearGradient id="linear-gradient-2" x1="1641.66" y1="506.5" x2="1698.85" y2="179.7" xlink:href="#linear-gradient"/>
    <linearGradient id="linear-gradient-3" x1="1296.32" y1="589.02" x2="781.59" y2="229.53" xlink:href="#linear-gradient"/>
    <linearGradient id="linear-gradient-4" x1="1267.31" y1="241.62" x2="1279.57" y2="-23.91" xlink:href="#linear-gradient"/>
    <linearGradient id="linear-gradient-5" x1="692.17" y1="562.9" x2="206.04" y2="391.33" xlink:href="#linear-gradient"/>
    <linearGradient id="linear-gradient-6" x1="1945.45" y1="1152.27" x2="2153.79" y2="960.27" xlink:href="#linear-gradient"/>
    <linearGradient id="linear-gradient-7" x1="1760.21" y1="1108.6" x2="1331.27" y2="1243.4" xlink:href="#linear-gradient"/>
    <linearGradient id="linear-gradient-8" x1="1870.71" y1="823.07" x2="2021.86" y2="447.24" xlink:href="#linear-gradient"/>
    <linearGradient id="linear-gradient-9" x1="1445.02" y1="948.59" x2="999.74" y2="915.9" xlink:href="#linear-gradient"/>
    <linearGradient id="linear-gradient-10" x1="1806.17" y1="1404.92" x2="2336.21" y2="1227.21" xlink:href="#linear-gradient"/>
  </defs>
  <g class="cls-10">
    <g id="Layer_1" data-name="Layer 1">
      <rect class="cls-3" x="0" width="2700" height="1520"/>
      <g class="cls-7">
        <path class="cls-13" d="M244.53,521.15c-4.53-71.34-17.34-142.39-14.37-213.82,2.97-71.43,24.13-145.8,76.42-194.55,60.74-56.62,149.25-67.74,228.89-91.22,20.88-6.16,41.43-13.37,61.58-21.56H0v1206.67c167.42-184.16,260.34-436.61,244.53-685.53Z"/>
        <path class="cls-1" d="M1016.1,1080.72c-18.47-142.48-37.86-288.69-4.66-428.48,33.2-139.79,131.62-273.89,271.8-305.39,151.05-33.94,298.61,54.91,437.04,124.23,301.57,151,643.1,217.65,979.71,199.25V0h-198.76c-56.15,52.83-114.8,102.74-177.93,147.01-135.23,94.82-294.17,163.12-459.32,164.83-192.5,2-372.94-84.68-556.29-143.34-183.35-58.66-397.82-85.79-556.83,22.73-120.8,82.44-184.24,228.63-206.15,373.22-21.9,144.6-8.38,291.86-8.23,438.11.15,146.25-14.76,297.79-87.18,424.85-19.12,33.55-41.69,64.35-67.04,92.59h628.86c1.11-3.72,2.17-7.45,3.18-11.19,37.41-138.72,20.27-285.61,1.8-428.09Z"/>
        <path class="cls-8" d="M1016.1,1080.72c-18.47-142.48-37.86-288.69-4.66-428.48,33.2-139.79,131.62-273.89,271.8-305.39,151.05-33.94,298.61,54.91,437.04,124.23,301.57,151,643.1,217.65,979.71,199.25V0h-198.76c-56.15,52.83-114.8,102.74-177.93,147.01-135.23,94.82-294.17,163.12-459.32,164.83-192.5,2-372.94-84.68-556.29-143.34-183.35-58.66-397.82-85.79-556.83,22.73-120.8,82.44-184.24,228.63-206.15,373.22-21.9,144.6-8.38,291.86-8.23,438.11.15,146.25-14.76,297.79-87.18,424.85-19.12,33.55-41.69,64.35-67.04,92.59h628.86c1.11-3.72,2.17-7.45,3.18-11.19,37.41-138.72,20.27-285.61,1.8-428.09Z"/>
        <path class="cls-4" d="M536.48,1002.57c-.15-146.25-13.67-293.51,8.23-438.11,21.9-144.6,85.35-290.79,206.15-373.22,159.01-108.51,373.48-81.38,556.83-22.73,183.35,58.66,363.79,145.33,556.29,143.34,165.15-1.71,324.09-70.01,459.32-164.83,63.13-44.27,121.78-94.18,177.93-147.01H597.05c-20.15,8.19-40.71,15.4-61.58,21.56-79.64,23.48-168.15,34.61-228.89,91.22-52.29,48.75-73.45,123.12-76.42,194.55-2.97,71.43,9.84,142.47,14.37,213.82,15.81,248.92-77.11,501.37-244.53,685.53v313.33h382.26c25.35-28.24,47.92-59.04,67.04-92.59,72.41-127.06,87.32-278.6,87.18-424.85Z"/>
        <path class="cls-5" d="M536.48,1002.57c-.15-146.25-13.67-293.51,8.23-438.11,21.9-144.6,85.35-290.79,206.15-373.22,159.01-108.51,373.48-81.38,556.83-22.73,183.35,58.66,363.79,145.33,556.29,143.34,165.15-1.71,324.09-70.01,459.32-164.83,63.13-44.27,121.78-94.18,177.93-147.01H597.05c-20.15,8.19-40.71,15.4-61.58,21.56-79.64,23.48-168.15,34.61-228.89,91.22-52.29,48.75-73.45,123.12-76.42,194.55-2.97,71.43,9.84,142.47,14.37,213.82,15.81,248.92-77.11,501.37-244.53,685.53v313.33h382.26c25.35-28.24,47.92-59.04,67.04-92.59,72.41-127.06,87.32-278.6,87.18-424.85Z"/>
        <path class="cls-12" d="M2519.21,1089.27c-209.59-13.14-413.96-98.68-570.41-238.77-66.28-59.35-125.44-129.01-203.91-170.94-78.47-41.93-185.89-48.06-248.3,15.36-36.03,36.61-50.49,89.18-57.51,140.06-23.66,171.66,21.94,344.15,45.91,515.77,7.73,55.35,12.75,112.53,12.54,169.26h467.64c-28.07-36.05-56.74-71.74-83.72-108.16-86.72-117.06-160.66-260.58-130.59-403.13,51.96-11,103.08,24.26,135.84,66.06,32.75,41.8,54.89,91.76,91.84,129.9,69.93,72.18,178.04,88.66,278.07,98.41,147.37,14.37,295.33,22.73,443.39,25.08v-245.27c-59.87,7.93-120.49,10.16-180.79,6.38Z"/>
        <path class="cls-9" d="M2519.21,1089.27c-209.59-13.14-413.96-98.68-570.41-238.77-66.28-59.35-125.44-129.01-203.91-170.94-78.47-41.93-185.89-48.06-248.3,15.36-36.03,36.61-50.49,89.18-57.51,140.06-23.66,171.66,21.94,344.15,45.91,515.77,7.73,55.35,12.75,112.53,12.54,169.26h467.64c-28.07-36.05-56.74-71.74-83.72-108.16-86.72-117.06-160.66-260.58-130.59-403.13,51.96-11,103.08,24.26,135.84,66.06,32.75,41.8,54.89,91.76,91.84,129.9,69.93,72.18,178.04,88.66,278.07,98.41,147.37,14.37,295.33,22.73,443.39,25.08v-245.27c-59.87,7.93-120.49,10.16-180.79,6.38Z"/>
        <path class="cls-11" d="M1484.99,1350.74c-23.96-171.62-69.57-344.11-45.91-515.77,7.01-50.88,21.48-103.45,57.51-140.06,62.41-63.42,169.83-57.29,248.3-15.36,78.47,41.94,137.62,111.59,203.91,170.94,156.45,140.09,360.82,225.64,570.41,238.77,60.3,3.78,120.91,1.55,180.79-6.38v-412.56c-336.61,18.4-678.14-48.25-979.71-199.25-138.43-69.32-285.99-158.16-437.04-124.23-140.18,31.5-238.6,165.6-271.8,305.39-33.2,139.79-13.81,286,4.66,428.48,18.47,142.48,35.61,289.37-1.8,428.09-1.01,3.74-2.07,7.47-3.18,11.19h486.42c.2-56.73-4.82-113.91-12.54-169.26Z"/>
        <path class="cls-6" d="M1484.99,1350.74c-23.96-171.62-69.57-344.11-45.91-515.77,7.01-50.88,21.48-103.45,57.51-140.06,62.41-63.42,169.83-57.29,248.3-15.36,78.47,41.94,137.62,111.59,203.91,170.94,156.45,140.09,360.82,225.64,570.41,238.77,60.3,3.78,120.91,1.55,180.79-6.38v-412.56c-336.61,18.4-678.14-48.25-979.71-199.25-138.43-69.32-285.99-158.16-437.04-124.23-140.18,31.5-238.6,165.6-271.8,305.39-33.2,139.79-13.81,286,4.66,428.48,18.47,142.48,35.61,289.37-1.8,428.09-1.01,3.74-2.07,7.47-3.18,11.19h486.42c.2-56.73-4.82-113.91-12.54-169.26Z"/>
        <path class="cls-2" d="M1978.55,1204.66c-36.95-38.14-59.09-88.09-91.84-129.9-32.75-41.8-83.88-77.06-135.84-66.06-30.06,142.55,43.87,286.07,130.59,403.13,26.98,36.42,55.66,72.11,83.72,108.16h734.82v-191.84c-148.05-2.35-296.01-10.71-443.39-25.08-100.02-9.76-208.13-26.24-278.07-98.41Z"/>
      </g>
    </g>
  </g>
</svg>