<?xml version="1.0" encoding="UTF-8"?>
<svg id="Layer_1" data-name="Layer 1" xmlns="http://www.w3.org/2000/svg" xmlns:xlink="http://www.w3.org/1999/xlink" viewBox="0 0 181.9 370.88">
  <defs>
    <style>
      .cls-1 {
        fill: url(#linear-gradient-2);
      }

      .cls-2 {
        mask: url(#mask-1);
      }

      .cls-3 {
        fill: #d7d7d7;
      }

      .cls-4 {
        fill: url(#linear-gradient-7);
        fill-opacity: .38;
        stroke: #0a0c0f;
        stroke-width: 1.96px;
      }

      .cls-5 {
        mask: url(#mask);
      }

      .cls-6 {
        stroke: #000;
        stroke-width: .13px;
      }

      .cls-6, .cls-7 {
        fill: none;
      }

      .cls-8 {
        fill: #b5ffff;
      }

      .cls-8, .cls-9 {
        fill-rule: evenodd;
      }

      .cls-10 {
        fill: url(#linear-gradient-4);
      }

      .cls-11 {
        mask: url(#mask-2);
      }

      .cls-12 {
        stroke: #222;
        stroke-width: .26px;
      }

      .cls-13 {
        fill: url(#linear-gradient-3);
      }

      .cls-14 {
        clip-path: url(#clippath-1);
      }

      .cls-15 {
        fill: url(#linear-gradient-5);
      }

      .cls-16 {
        fill: #161663;
      }

      .cls-9 {
        fill: #114fed;
      }

      .cls-17 {
        fill: url(#linear-gradient-6);
      }

      .cls-18 {
        mask: url(#mask-4);
      }

      .cls-19 {
        fill: url(#linear-gradient);
      }

      .cls-20 {
        clip-path: url(#clippath);
      }

      .cls-21 {
        mask: url(#mask-3);
      }
    </style>
    <clipPath id="clippath">
      <rect class="cls-7" x="5.3" y="4.45" width="170.65" height="361.98" rx="30.23" ry="30.23"/>
    </clipPath>
    <clipPath id="clippath-1">
      <rect class="cls-7" x="-12.23" y="5.44" width="205.71" height="360"/>
    </clipPath>
    <linearGradient id="linear-gradient" x1="2.34" y1="-1.45" x2="212.96" y2="444.41" gradientUnits="userSpaceOnUse">
      <stop offset="0" stop-color="#0463ee"/>
      <stop offset="1" stop-color="#00c3ff"/>
    </linearGradient>
    <linearGradient id="linear-gradient-2" x1="-4004" y1="765.55" x2="-3811.56" y2="621.95" gradientTransform="translate(4015.33 -608.61)" gradientUnits="userSpaceOnUse">
      <stop offset="0" stop-color="#fff"/>
      <stop offset="1" stop-color="#000"/>
    </linearGradient>
    <mask id="mask" x="72.17" y="5.44" width="121.32" height="121.7" maskUnits="userSpaceOnUse">
      <rect class="cls-1" x="72.17" y="5.44" width="121.32" height="121.7"/>
    </mask>
    <linearGradient id="linear-gradient-3" x1="-3908.19" y1="741.91" x2="-3698.17" y2="555.33" gradientTransform="translate(3809.08 -529.83)" xlink:href="#linear-gradient-2"/>
    <mask id="mask-1" x="-12.23" y="5.44" width="118.18" height="153.93" maskUnits="userSpaceOnUse">
      <rect class="cls-13" x="-12.23" y="5.44" width="118.18" height="153.93"/>
    </mask>
    <linearGradient id="linear-gradient-4" x1="-3871.62" y1="698.74" x2="-3682.11" y2="473.09" gradientTransform="translate(3809.08 -353.18)" xlink:href="#linear-gradient-2"/>
    <mask id="mask-2" x="-12.23" y="94.72" width="205.71" height="136.93" maskUnits="userSpaceOnUse">
      <rect class="cls-10" x="-12.23" y="94.72" width="205.71" height="136.93"/>
    </mask>
    <linearGradient id="linear-gradient-5" x1="-3756.22" y1="605.02" x2="-3952.57" y2="706.61" gradientTransform="translate(3985.49 -608.61)" xlink:href="#linear-gradient-2"/>
    <mask id="mask-3" x="59.96" y="5.44" width="68.56" height="121.7" maskUnits="userSpaceOnUse">
      <rect class="cls-15" x="59.96" y="5.44" width="68.56" height="121.7"/>
    </mask>
    <linearGradient id="linear-gradient-6" x1="-3494.47" y1="207.67" x2="-3805.11" y2="609.15" gradientTransform="translate(3809.08 -323.34)" xlink:href="#linear-gradient-2"/>
    <mask id="mask-4" x="-12.23" y="103.77" width="205.71" height="140.09" maskUnits="userSpaceOnUse">
      <rect class="cls-17" x="-12.23" y="103.77" width="205.71" height="140.09"/>
    </mask>
    <linearGradient id="linear-gradient-7" x1="303.07" y1="195.66" x2="303.03" y2="198.11" gradientTransform="translate(-196 216.88) scale(1 -1)" gradientUnits="userSpaceOnUse">
      <stop offset=".04" stop-color="#102d71"/>
      <stop offset="1" stop-color="#1c2d4b"/>
    </linearGradient>
  </defs>
  <path class="cls-16" d="M0,134.53c0-.43.35-.79.79-.79h.39v28.14h-.39c-.43,0-.79-.35-.79-.79v-26.57Z"/>
  <path class="cls-16" d="M0,98.8c0-.43.35-.79.79-.79h.39v28.14h-.39c-.43,0-.79-.35-.79-.79v-26.57Z"/>
  <path class="cls-16" d="M-.65,72.11c0-.43.35-.79.79-.79h1.05v13.87H.13c-.43,0-.79-.35-.79-.79v-12.3Z"/>
  <path class="cls-16" d="M180.73,117.52h.39c.43,0,.79.35.79.79v42.79c0,.43-.35.79-.79.79h-.39v-44.36Z"/>
  <path class="cls-6" d="M1.18,71.45v13.81"/>
  <path class="cls-6" d="M1.18,98.15v27.94"/>
  <rect class="cls-7" x="1.18" width="179.55" height="370.88" rx="32.85" ry="32.85"/>
  <rect class="cls-16" x="1.18" width="179.55" height="370.88" rx="32.85" ry="32.85"/>
  <path d="M38.87,368.85l2.62.07v1.96h-2.62v-2.03Z"/>
  <path d="M178.76,39h1.96v2.62h-1.96v-2.62Z"/>
  <path d="M178.76,330.44h1.96v2.62h-2.03l.07-2.62Z"/>
  <rect class="cls-7" x="8.24" y="7.07" width="165.41" height="356.74" rx="27.48" ry="27.48"/>
  <path class="cls-12" d="M110.45,1.96c-.07.88-.8,1.57-1.7,1.57h-35.6c-.9,0-1.63-.69-1.7-1.57h38.99Z"/>
  <path d="M140.68,0h2.62v2.03l-2.62-.13V0Z"/>
  <path d="M1.18,39.52h1.96l-.07,2.55-1.9.07v-2.62Z"/>
  <path d="M1.18,330.44h1.9l.07,2.62h-1.96v-2.62Z"/>
  <g class="cls-20">
    <g>
      <g class="cls-14">
        <rect class="cls-19" x="-12.23" y="5.44" width="205.71" height="360"/>
      </g>
      <g class="cls-5">
        <path class="cls-8" d="M193.48,94.72V5.44h-87.54l-14.8,14.32c-24.71,23.91-25.37,63.69-1.46,88.4,23.91,24.71,63.69,25.37,88.4,1.46l15.4-14.9Z"/>
      </g>
      <g class="cls-2">
        <path class="cls-8" d="M89.68,108.16c-23.91-24.71-23.25-64.49,1.46-88.4l14.8-14.32H35.72L-12.23,51.83v90.2c24.05,23.1,62.61,23.2,86.77-.17l25.76-24.92c-3.78-2.48-7.34-5.41-10.61-8.78"/>
      </g>
      <g class="cls-11">
        <path class="cls-8" d="M100.29,116.94l-25.76,24.92c-24.16,23.37-62.71,23.27-86.77.17v56.86c2.65,4.93,6.01,9.58,10.09,13.79,23.91,24.71,63.69,25.37,88.4,1.46l93.38-90.33c6.07-5.87,10.69-12.71,13.85-20.04v-9.05l-15.4,14.9c-21.34,20.64-53.9,22.97-77.79,7.32"/>
      </g>
      <g class="cls-21">
        <path class="cls-9" d="M95.83,121.26c10.26,4.79,21.59,6.65,32.69,5.58-9.92-.96-19.63-4.26-28.23-9.9-3.78-2.48-7.34-5.41-10.61-8.78-23.91-24.71-23.25-64.49,1.46-88.4l14.8-14.32h-12.21l-14.8,14.32c-24.71,23.91-25.37,63.69-1.46,88.4,5.42,5.61,11.66,9.97,18.36,13.1"/>
      </g>
      <g class="cls-18">
        <path class="cls-9" d="M86.25,226.36l93.38-90.33c6.07-5.87,10.69-12.71,13.85-20.04v-12.21c-3.16,7.33-7.78,14.16-13.85,20.04l-93.38,90.33c-24.71,23.91-64.49,23.25-88.4-1.46-4.07-4.21-7.44-8.86-10.09-13.79v12.21c2.65,4.93,6.01,9.58,10.09,13.79,23.91,24.71,63.69,25.37,88.4,1.46"/>
      </g>
    </g>
  </g>
  <path d="M146.05,369.04H35.86c-18.11,0-32.85-14.74-32.85-32.85V34.68C3.01,16.57,17.75,1.83,35.86,1.83h110.19c18.11,0,32.85,14.74,32.85,32.85v301.52c0,18.11-14.74,32.85-32.85,32.85ZM35.86,7.07c-15.23,0-27.61,12.39-27.61,27.61v301.52c0,15.23,12.39,27.61,27.61,27.61h110.19c15.23,0,27.61-12.39,27.61-27.61V34.68c0-15.23-12.39-27.61-27.61-27.61H35.86Z"/>
  <g>
    <path class="cls-3" d="M109.34,14.92c2.71,0,4.91,2.2,4.91,4.91s-2.2,4.91-4.91,4.91-4.91-2.2-4.91-4.91,2.2-4.91,4.91-4.91Z"/>
    <path d="M72.17,12.3h36.9c4.16,0,7.52,3.37,7.52,7.52h0c0,4.16-3.37,7.52-7.52,7.52h-36.9c-4.16,0-7.52-3.37-7.52-7.52h0c0-4.16,3.37-7.52,7.52-7.52Z"/>
    <path class="cls-4" d="M107.05,22.71c1.59,0,2.94-1.26,2.94-2.88s-1.35-2.88-2.94-2.88-2.94,1.26-2.94,2.88,1.35,2.88,2.94,2.88Z"/>
  </g>
</svg>