<?xml version="1.0" encoding="UTF-8"?>
<svg id="Layer_1" data-name="Layer 1" xmlns="http://www.w3.org/2000/svg" viewBox="0 0 160 160">
  <defs>
    <style>
      .cls-1 {
        fill: #006eff;
      }
    </style>
  </defs>
  <g>
    <path class="cls-1" d="M78.35,77.5c-6.18-5.86-11.18-11.4-17-15.93-6.93-5.4-14.29-10.4-21.98-14.67-5.93-3.3-8.86-.94-8.86,5.86,0,6.41,0,12.81,0,20.49-3.6-2.53-6.72-4.35-9.41-6.66C4.21,52.07-1.33,33.23.26,11.89.8,4.68,6.26.09,13.99.06,31.34-.03,46.34,6.01,59.27,17.28c12.87,11.22,18.42,25.68,19.05,42.24.21,5.64.03,11.3.03,17.98Z"/>
    <path class="cls-1" d="M129.69,71.24c0-7.22,0-13.94,0-20.67,0-6.03-3.03-8.26-8.51-5.5-5.42,2.73-10.81,5.86-15.41,9.73-7.04,5.92-13.39,12.63-20.04,18.99-1.17,1.12-2.38,2.2-4.49,3.01,0-4.91-.21-9.84.04-14.74.65-12.68,2.93-25.02,10.22-35.79C102.81,9.56,118.64.53,139.21.03c2.41-.06,4.82-.01,7.23,0,8.93.04,13.2,3.42,13.5,12.13.82,23.82-7.22,43.71-27.71,57.67-.66.45-1.4.78-2.55,1.41Z"/>
  </g>
  <g>
    <path class="cls-1" d="M30.5,86.67c0,7.37-.02,14.11,0,20.85.02,5.3,2.59,7.53,7.22,5.03,7.53-4.06,14.88-8.65,21.61-13.9,6.55-5.11,12.23-11.33,18.89-17.62,0,6.22.72,11.82-.17,17.17-1.38,8.35-2.66,17.03-6.07,24.66-9.19,20.58-25.93,32.37-48.32,36.15-4.28.72-8.9.71-13.18-.02-6.19-1.05-9.83-5.15-10.21-11.29-1.57-24.87,6.69-45.38,28.07-59.85.48-.32,1.01-.56,2.16-1.2Z"/>
    <path class="cls-1" d="M129.42,88.89c8.86,4.83,14.79,11.39,19.48,19.1,7.51,12.35,10.51,25.83,9.7,40.14-.41,7.27-4.04,10.94-11.59,11.57-18.95,1.58-35.75-3.19-49.3-16.91-9.42-9.54-14.57-21.18-15.62-34.31-.68-8.48-.13-17.05-.13-26.06,2.01,2.07,4.16,4.16,6.17,6.36,7.02,7.72,14.5,14.94,23.56,20.31,3.15,1.87,6.64,3.28,10.13,4.45,4.61,1.54,7.47-.58,7.58-5.46.13-6.17.03-12.35.03-19.2Z"/>
  </g>
</svg>