<?xml version="1.0" encoding="UTF-8"?>
<svg id="Layer_2" data-name="Layer 2" xmlns="http://www.w3.org/2000/svg" viewBox="0 0 329.41 313.31">
  <defs>
    <style>
      .cls-1 {
        fill: #fad505;
      }

      .cls-2 {
        fill: #1058a3;
      }
    </style>
  </defs>
  <g id="Layer_1-2" data-name="Layer 1">
    <path class="cls-1" d="M93.08,46.16C93.08,20.67,72.33,0,46.74,0S.38,20.67.38,46.16s20.75,46.15,46.36,46.15,46.35-20.66,46.35-46.15Z"/>
    <path class="cls-2" d="M328.84,46.16c0-25.49-20.75-46.16-46.36-46.16s-46.35,20.67-46.35,46.16,20.75,46.15,46.35,46.15,46.36-20.66,46.36-46.15Z"/>
    <path class="cls-2" d="M124.81,268.63c-1.33,13.62,4.18,26.11,13.68,34.43,7.03,6.24,16.53,10.03,26.78,10.22,24.13.38,48.82-2.46,72.19-10.4,59.65-19.67,92.33-70.57,91.94-132.23v-20.62c0-6.05-2.28-11.72-5.88-16.08-4.56-5.49-11.58-8.89-19.18-8.89h-36.66c-7.98,0-15.02,3.6-19.57,9.27-3.61,4.35-5.7,9.83-5.7,15.89v20.24c0,10.4-2.28,22.51-7.21,30.84-6.08,10.59-14.63,17.03-26.78,21.94-14.44,5.67-29.64,8.13-45.21,9.08-9.5.57-18.05,4.35-24.89,10.4-7.59,6.06-12.53,15.33-13.48,25.92Z"/>
    <path class="cls-1" d="M204.6,268.63c1.33,13.62-4.19,26.11-13.68,34.43-7.03,6.24-16.53,10.03-26.78,10.22-24.13.38-48.83-2.46-72.19-10.4C32.3,283.2-.37,232.31,0,170.64v-20.62c0-6.05,2.28-11.72,5.89-16.08,4.56-5.49,11.58-8.89,19.18-8.89h36.66c7.98,0,15.01,3.6,19.56,9.27,3.62,4.35,5.7,9.83,5.7,15.89v20.24c0,10.4,2.29,22.51,7.22,30.84,6.08,10.59,14.63,17.03,26.78,21.94,14.43,5.67,29.63,8.13,45.21,9.08,9.5.57,18.05,4.35,24.88,10.4,7.6,6.06,12.54,15.33,13.49,25.92Z"/>
  </g>
</svg>