<svg xmlns="http://www.w3.org/2000/svg" version="1.1" xmlns:xlink="http://www.w3.org/1999/xlink" width="512" height="512" x="0" y="0" viewBox="0 0 24 24" style="enable-background:new 0 0 512 512" xml:space="preserve" fill-rule="evenodd"><g><path d="M.75 7.5c0-.464.184-.909.513-1.237A1.746 1.746 0 0 1 2.5 5.75H11c.464 0 .909.184 1.237.513.329.328.513.773.513 1.237V16c0 .464-.184.909-.513 1.237A1.746 1.746 0 0 1 11 17.75H2.5c-.464 0-.909-.184-1.237-.513A1.746 1.746 0 0 1 .75 16zm1.5 0V16a.25.25 0 0 0 .25.25H11a.25.25 0 0 0 .25-.25V7.5a.25.25 0 0 0-.25-.25H2.5a.25.25 0 0 0-.25.25zM16.25 7.5c0-.966.783-1.75 1.75-1.75h3.5c.967 0 1.75.784 1.75 1.75V16a1.75 1.75 0 0 1-1.75 1.75H18A1.75 1.75 0 0 1 16.25 16zm1.5 0V16c0 .138.112.25.25.25h3.5a.25.25 0 0 0 .25-.25V7.5a.25.25 0 0 0-.25-.25H18a.25.25 0 0 0-.25.25z" fill="#7c86ff" opacity="1" data-original="#000000"></path><path d="M1.5 8.75H12a.75.75 0 0 1 .75.75V14a.75.75 0 0 1-.75.75H1.5A.75.75 0 0 1 .75 14V9.5a.75.75 0 0 1 .75-.75zM17 8.75h5.5a.75.75 0 0 1 .75.75V14a.75.75 0 0 1-.75.75H17a.75.75 0 0 1-.75-.75V9.5a.75.75 0 0 1 .75-.75zM12.5.75h4a.75.75 0 0 1 .75.75V3c0 .199-.079.39-.22.53l-2 2a.749.749 0 0 1-1.06 0l-2-2a.747.747 0 0 1-.22-.53V1.5a.75.75 0 0 1 .75-.75zM11.75 22.5V21c0-.199.079-.39.22-.53l2-2a.749.749 0 0 1 1.06 0l2 2c.141.14.22.331.22.53v1.5a.75.75 0 0 1-.75.75h-4a.75.75 0 0 1-.75-.75z" fill="#7c86ff" opacity="1" data-original="#000000"></path><path d="M4.25 6.5a.75.75 0 0 1 1.5 0v3a.75.75 0 0 1-1.5 0zM4.25 14a.75.75 0 0 1 1.5 0v3a.75.75 0 0 1-1.5 0zM7.75 6.5a.75.75 0 0 1 1.5 0v3a.75.75 0 0 1-1.5 0zM19 6.5a.75.75 0 0 1 1.5 0v3a.75.75 0 0 1-1.5 0zM7.75 14a.75.75 0 0 1 1.5 0v3a.75.75 0 0 1-1.5 0zM19 14a.75.75 0 0 1 1.5 0v3a.75.75 0 0 1-1.5 0zM15.25 19a.75.75 0 0 1-1.5 0V5a.75.75 0 0 1 1.5 0z" fill="#7c86ff" opacity="1" data-original="#000000"></path></g></svg>