<?xml version="1.0" encoding="UTF-8"?>
<svg id="Layer_1" data-name="Layer 1" xmlns="http://www.w3.org/2000/svg" xmlns:xlink="http://www.w3.org/1999/xlink" viewBox="0 0 4000 7000">
  <defs>
    <style>
      .cls-1 {
        fill: url(#linear-gradient-2);
      }

      .cls-2 {
        mask: url(#mask-1);
      }

      .cls-3 {
        mask: url(#mask);
      }

      .cls-4 {
        fill: #b5ffff;
      }

      .cls-4, .cls-5 {
        fill-rule: evenodd;
      }

      .cls-6 {
        fill: none;
      }

      .cls-7 {
        fill: url(#linear-gradient-4);
      }

      .cls-8 {
        mask: url(#mask-2);
      }

      .cls-9 {
        fill: url(#linear-gradient-3);
      }

      .cls-10 {
        fill: url(#linear-gradient-5);
      }

      .cls-5 {
        fill: #114fed;
      }

      .cls-11 {
        fill: url(#linear-gradient-6);
      }

      .cls-12 {
        mask: url(#mask-4);
      }

      .cls-13 {
        fill: url(#linear-gradient);
      }

      .cls-14 {
        clip-path: url(#clippath);
      }

      .cls-15 {
        mask: url(#mask-3);
      }
    </style>
    <clipPath id="clippath">
      <rect class="cls-6" x=".92" y="1.71" width="3999.03" height="6998.29"/>
    </clipPath>
    <linearGradient id="linear-gradient" x1="284.2" y1="-132.11" x2="4378.66" y2="8535.13" gradientUnits="userSpaceOnUse">
      <stop offset="0" stop-color="#0463ee"/>
      <stop offset="1" stop-color="#00c3ff"/>
    </linearGradient>
    <linearGradient id="linear-gradient-2" x1="-3556.33" y1="3555.52" x2="184.61" y2="764.08" gradientTransform="translate(4015.33 -608.61)" gradientUnits="userSpaceOnUse">
      <stop offset="0" stop-color="#fff"/>
      <stop offset="1" stop-color="#000"/>
    </linearGradient>
    <mask id="mask" x="1641.61" y="1.71" width="2358.34" height="2365.74" maskUnits="userSpaceOnUse">
      <rect class="cls-1" x="1641.61" y="1.71" width="2358.34" height="2365.74"/>
    </mask>
    <linearGradient id="linear-gradient-3" x1="-5497.1" y1="4548.58" x2="-1414.35" y2="921.57" gradientTransform="translate(3809.08 -529.83)" xlink:href="#linear-gradient-2"/>
    <mask id="mask-1" x=".92" y="1.71" width="2297.3" height="2992.39" maskUnits="userSpaceOnUse">
      <rect class="cls-9" x=".92" y="1.71" width="2297.3" height="2992.39"/>
    </mask>
    <linearGradient id="linear-gradient-4" x1="-4786.06" y1="6966.77" x2="-1102.09" y2="2580.23" gradientTransform="translate(3809.08 -353.18)" xlink:href="#linear-gradient-2"/>
    <mask id="mask-2" x=".92" y="1737.36" width="3999.03" height="2661.97" maskUnits="userSpaceOnUse">
      <rect class="cls-7" x=".92" y="1737.36" width="3999.03" height="2661.97"/>
    </mask>
    <linearGradient id="linear-gradient-5" x1="710.16" y1="435.01" x2="-3106.75" y2="2409.89" gradientTransform="translate(3985.49 -608.61)" xlink:href="#linear-gradient-2"/>
    <mask id="mask-3" x="1404.24" y="1.71" width="1332.84" height="2365.74" maskUnits="userSpaceOnUse">
      <rect class="cls-10" x="1404.24" y="1.71" width="1332.84" height="2365.74"/>
    </mask>
    <linearGradient id="linear-gradient-6" x1="2545.59" y1="-2029.26" x2="-3493.11" y2="5775.43" gradientTransform="translate(3809.08 -323.34)" xlink:href="#linear-gradient-2"/>
    <mask id="mask-4" x=".92" y="1913.31" width="3999.03" height="2723.38" maskUnits="userSpaceOnUse">
      <rect class="cls-11" x=".92" y="1913.31" width="3999.03" height="2723.38"/>
    </mask>
  </defs>
  <g class="cls-14">
    <rect class="cls-13" x=".92" y="1.71" width="3999.03" height="6998.29"/>
  </g>
  <g class="cls-3">
    <path class="cls-4" d="M3999.95,1737.36V1.71h-1701.73l-287.78,278.4c-480.41,464.76-493.21,1238.09-28.45,1718.5,464.77,480.41,1238.09,493.21,1718.5,28.45l299.46-289.7Z"/>
  </g>
  <g class="cls-2">
    <path class="cls-4" d="M1981.99,1998.61c-464.76-480.41-451.96-1253.74,28.45-1718.5L2298.22,1.71H933.08L.92,903.51v1753.46c467.58,449.04,1217.08,451.06,1686.69-3.25l500.68-484.37c-73.5-48.16-142.78-105.08-206.29-170.73"/>
  </g>
  <g class="cls-8">
    <path class="cls-4" d="M2188.29,2169.35l-500.68,484.37c-469.61,454.31-1219.1,452.29-1686.69,3.25v1105.36c51.51,95.91,116.85,186.29,196.06,268.16,464.77,480.41,1238.09,493.22,1718.5,28.45l1815.19-1756.06c118.05-114.2,207.86-247.03,269.29-389.56v-175.95l-299.46,289.7c-414.76,401.25-1047.84,446.54-1512.21,142.28"/>
  </g>
  <g class="cls-15">
    <path class="cls-5" d="M2101.55,2253.26c199.46,93.07,419.73,129.36,635.52,108.46-192.75-18.67-381.69-82.89-548.79-192.37-73.5-48.16-142.78-105.08-206.29-170.73-464.76-480.41-451.96-1253.74,28.45-1718.5L2298.22,1.71h-237.37l-287.78,278.4c-480.41,464.76-493.21,1238.09-28.45,1718.5,105.44,108.99,226.75,193.91,356.93,254.64"/>
  </g>
  <g class="cls-12">
    <path class="cls-5" d="M1915.48,4296.31l1815.19-1756.06c118.05-114.2,207.86-247.03,269.29-389.56v-237.37c-61.43,142.54-151.24,275.36-269.29,389.56l-1815.19,1756.06c-480.41,464.77-1253.74,451.96-1718.5-28.45-79.21-81.87-144.54-172.25-196.06-268.16v237.37c51.51,95.91,116.85,186.29,196.06,268.16,464.77,480.41,1238.09,493.21,1718.5,28.45"/>
  </g>
</svg>